%FSLAX46Y46*%
%MOMM*%
%ADD10C,0.300000*%
%AMPS25*
1,1,2.000000,0.000000,0.000000*
%
%ADD25PS25*%
%AMPS26*
1,1,1.500000,0.000000,0.000000*
%
%ADD26PS26*%
%AMPS30*
1,1,1.350000,0.000000,0.000000*
%
%ADD30PS30*%
%AMPS29*
1,1,1.300000,0.000000,0.000000*
%
%ADD29PS29*%
%AMPS34*
1,1,1.550000,0.000000,0.000000*
%
%ADD34PS34*%
%AMPS33*
1,1,3.000000,0.000000,0.000000*
%
%ADD33PS33*%
%AMPS21*
1,1,2.200000,0.000000,0.000000*
%
%ADD21PS21*%
%AMPS31*
1,1,1.350000,0.000000,0.000000*
%
%ADD31PS31*%
%AMPS36*
1,1,3.000000,0.000000,0.000000*
%
%ADD36PS36*%
%AMPS12*
1,1,1.850000,0.000000,0.000000*
%
%ADD12PS12*%
%AMPS28*
1,1,1.700000,0.000000,0.000000*
%
%ADD28PS28*%
%AMPS17*
1,1,1.700000,0.000000,0.000000*
%
%ADD17PS17*%
%AMPS27*
1,1,1.700000,0.000000,0.000000*
%
%ADD27PS27*%
%AMPS19*
1,1,2.900000,0.000000,0.000000*
%
%ADD19PS19*%
%AMPS15*
1,1,2.900000,0.000000,0.000000*
%
%ADD15PS15*%
%AMPS20*
21,1,0.800000,0.800000,0.000000,0.000000,270.000000*
%
%ADD20PS20*%
%AMPS14*
21,1,0.600000,1.500000,0.000000,0.000000,90.000000*
%
%ADD14PS14*%
%AMPS13*
21,1,0.600000,1.500000,0.000000,0.000000,270.000000*
%
%ADD13PS13*%
%AMPS35*
21,1,1.000000,1.250000,0.000000,0.000000,180.000000*
%
%ADD35PS35*%
%AMPS16*
21,1,0.800000,0.750000,0.000000,0.000000,0.000000*
%
%ADD16PS16*%
%AMPS18*
21,1,0.800000,0.750000,0.000000,0.000000,90.000000*
%
%ADD18PS18*%
%AMPS22*
21,1,0.800000,0.750000,0.000000,0.000000,180.000000*
%
%ADD22PS22*%
%AMPS24*
21,1,0.500000,0.900000,0.000000,0.000000,0.000000*
%
%ADD24PS24*%
%AMPS32*
21,1,0.500000,0.900000,0.000000,0.000000,90.000000*
%
%ADD32PS32*%
%AMPS11*
21,1,0.500000,0.900000,0.000000,0.000000,180.000000*
%
%ADD11PS11*%
%AMPS23*
21,1,0.500000,0.900000,0.000000,0.000000,270.000000*
%
%ADD23PS23*%
%AMPS37*
1,1,0.600000,0.000000,0.000000*
%
%ADD37PS37*%
G01*
G01*
%LPD*%
D10*
X62300000Y67885000D02*
X58115000Y67885000D01*
D10*
X33000000Y90750000D02*
X33000000Y95250000D01*
D10*
X34250000Y76500000D02*
X16250000Y76500000D01*
D10*
X14250000Y92382600D02*
X17300000Y92382600D01*
D10*
X78750000Y89750000D02*
X77000000Y89750000D01*
D10*
X56250000Y79000000D02*
X56250000Y80000000D01*
D10*
X11000000Y85000000D02*
X11000000Y82000000D01*
D10*
X62000000Y61000000D02*
X63750000Y62750000D01*
D10*
X77000000Y89750000D02*
X76500000Y89250000D01*
D10*
X21000000Y78793600D02*
X17300000Y78793600D01*
D10*
X57500000Y68500000D02*
X55000000Y68500000D01*
D10*
X56750000Y89750000D02*
X56750000Y88250000D01*
D10*
X29000000Y91750000D02*
X29000000Y95250000D01*
D10*
X55750000Y81000000D02*
X56250000Y81000000D01*
D10*
X14000000Y73750000D02*
X16250000Y73750000D01*
D10*
X17499944Y70500008D02*
X20480008Y70500008D01*
D10*
X48480000Y67250000D02*
X47530000Y67250000D01*
D10*
X56250000Y83000000D02*
X57775000Y83000000D01*
D10*
X63750000Y77500000D02*
X63750000Y79000000D01*
D10*
X66845000Y69155000D02*
X65000000Y71000000D01*
D10*
X67700000Y66615000D02*
X65615000Y66615000D01*
D10*
X16250000Y76500000D02*
X15500000Y77250000D01*
D10*
X43500000Y67250000D02*
X34250000Y76500000D01*
D10*
X66500010Y90249990D02*
X59249990Y90249990D01*
D10*
X63250000Y87000000D02*
X64750000Y88500000D01*
D10*
X65250000Y79000000D02*
X65250000Y80000000D01*
D10*
X48500000Y58750000D02*
X61000000Y58750000D01*
D10*
X63250000Y83000000D02*
X63250000Y81750000D01*
D10*
X29250000Y91500000D02*
X29000000Y91750000D01*
D10*
X56750000Y88250000D02*
X58250000Y86750000D01*
D10*
X17499944Y72500056D02*
X17499944Y70500008D01*
D10*
X17300000Y83873600D02*
X17250000Y83823600D01*
D10*
X61000000Y58750000D02*
X62000000Y59750000D01*
D10*
X30750000Y90750000D02*
X30750000Y91500000D01*
D10*
X60000000Y81000000D02*
X60750000Y81750000D01*
D10*
X58115000Y67885000D02*
X57500000Y68500000D01*
D10*
X43500000Y65999990D02*
X34749990Y74750000D01*
D10*
X48480000Y69790000D02*
X43253600Y69790000D01*
D10*
X65615000Y66615000D02*
X65000000Y66000000D01*
D10*
X67700000Y69155000D02*
X66845000Y69155000D01*
D10*
X55750000Y71750000D02*
X56500000Y71000000D01*
D10*
X31000000Y91750000D02*
X31000000Y95250000D01*
D10*
X59250000Y71000000D02*
X57500000Y71000000D01*
D10*
X17250000Y80343600D02*
X17250000Y81250000D01*
D10*
X14250008Y70500008D02*
X14250000Y70500000D01*
D10*
X14250000Y83823600D02*
X17250000Y83823600D01*
D10*
X50250000Y72000000D02*
X43500000Y72000000D01*
D10*
X59000000Y61000000D02*
X57500000Y62500000D01*
D10*
X65615000Y67885000D02*
X65000000Y68500000D01*
D10*
X35500000Y87750000D02*
X32000000Y87750000D01*
D10*
X60750000Y81750000D02*
X63250000Y81750000D01*
D10*
X59345000Y69155000D02*
X57500000Y71000000D01*
D10*
X62300000Y69155000D02*
X59345000Y69155000D01*
D10*
X53500000Y80250000D02*
X56250000Y83000000D01*
D10*
X64750000Y88500000D02*
X66500000Y86750000D01*
D10*
X74250000Y64500000D02*
X74250000Y57750000D01*
D10*
X16250000Y82250000D02*
X31750000Y82250000D01*
D10*
X37000000Y90750000D02*
X37000000Y95250000D01*
D10*
X60500000Y61000000D02*
X60500000Y62500000D01*
D10*
X37000000Y78500000D02*
X37000000Y87750000D01*
D10*
X55000000Y68500000D02*
X54500000Y69000000D01*
D10*
X60500000Y61000000D02*
X59000000Y61000000D01*
D10*
X48480000Y67250000D02*
X43500000Y67250000D01*
D10*
X56250000Y77500000D02*
X56250000Y79000000D01*
D10*
X43500000Y72000000D02*
X37000000Y78500000D01*
D10*
X17300000Y78793600D02*
X17250000Y78743600D01*
D10*
X62000000Y59750000D02*
X62000000Y61000000D01*
D10*
X23750000Y66000000D02*
X24770000Y67020000D01*
D10*
X12750000Y92382600D02*
X12750000Y86750000D01*
D10*
X65250000Y77500000D02*
X65250000Y79000000D01*
D10*
X51020000Y67250000D02*
X49769990Y65999990D01*
D10*
X58250000Y86750000D02*
X58250000Y84500000D01*
D10*
X67700000Y66615000D02*
X72135000Y66615000D01*
D10*
X60500000Y73500000D02*
X60500000Y72250000D01*
D10*
X63250000Y79500000D02*
X62750000Y79000000D01*
D10*
X30750000Y89000000D02*
X30750000Y90750000D01*
D10*
X54500000Y69000000D02*
X54500000Y79750000D01*
D10*
X58750000Y89750000D02*
X56750000Y89750000D01*
D10*
X62000000Y72250000D02*
X63250000Y71000000D01*
D10*
X53500000Y68500000D02*
X53500000Y80250000D01*
D10*
X23730000Y73750000D02*
X33500000Y73750000D01*
D10*
X76500000Y89250000D02*
X67500000Y89250000D01*
D10*
X20480008Y70500008D02*
X22230000Y72250000D01*
D10*
X60250000Y79000000D02*
X61250000Y79000000D01*
D10*
X17300000Y92382600D02*
X17250000Y92332600D01*
D10*
X17250000Y85423600D02*
X17250000Y86500000D01*
D10*
X61250000Y75250000D02*
X62000000Y74500000D01*
D10*
X72135000Y66615000D02*
X74250000Y64500000D01*
D10*
X29250000Y90750000D02*
X29250000Y91500000D01*
D10*
X63250000Y84500000D02*
X63250000Y87000000D01*
D10*
X54500000Y79750000D02*
X55750000Y81000000D01*
D10*
X56000000Y66000000D02*
X53500000Y68500000D01*
D10*
X63250000Y71000000D02*
X65000000Y71000000D01*
D10*
X17250000Y93932600D02*
X17250000Y95000000D01*
D10*
X34749990Y74750000D02*
X14250000Y74750000D01*
D10*
X66845000Y65345000D02*
X65000000Y63500000D01*
D10*
X12750000Y76250000D02*
X14250000Y74750000D01*
D10*
X22230000Y72250000D02*
X23730000Y73750000D01*
D10*
X57750000Y79000000D02*
X57750000Y77500000D01*
D10*
X16250000Y73750000D02*
X17499944Y72500056D01*
D10*
X60500000Y62500000D02*
X62300000Y64300000D01*
D10*
X55750000Y73750000D02*
X55750000Y71750000D01*
D10*
X58250000Y81750000D02*
X58250000Y83000000D01*
D10*
X7500000Y82000000D02*
X11000000Y82000000D01*
D10*
X49769990Y65999990D02*
X43500000Y65999990D01*
D10*
X31750000Y82250000D02*
X33000000Y83500000D01*
D10*
X81500000Y55870000D02*
X76130000Y55870000D01*
D10*
X11000000Y76750000D02*
X14000000Y73750000D01*
D10*
X66500000Y86750000D02*
X85000000Y86750000D01*
D10*
X43253600Y69790000D02*
X34250000Y78793600D01*
D10*
X51020000Y71230000D02*
X50250000Y72000000D01*
D10*
X63250000Y79500000D02*
X63750000Y79000000D01*
D10*
X51020000Y69790000D02*
X51020000Y71230000D01*
D10*
X33000000Y88750000D02*
X33000000Y90750000D01*
D10*
X63750000Y62750000D02*
X63750000Y69750000D01*
D10*
X34250000Y78793600D02*
X22500000Y78793600D01*
D10*
X12750000Y86750000D02*
X11000000Y85000000D01*
D10*
X57775000Y83000000D02*
X58250000Y83000000D01*
D10*
X58250000Y79500000D02*
X58750000Y79000000D01*
D10*
X56500000Y71000000D02*
X57500000Y71000000D01*
D10*
X30750000Y91500000D02*
X31000000Y91750000D01*
D10*
X67700000Y65345000D02*
X66845000Y65345000D01*
D10*
X15500000Y81500000D02*
X16250000Y82250000D01*
D10*
X59249990Y90249990D02*
X58750000Y89750000D01*
D10*
X67500000Y89250000D02*
X66500010Y90249990D01*
D10*
X62300000Y66615000D02*
X58115000Y66615000D01*
D10*
X58115000Y66615000D02*
X57500000Y66000000D01*
D10*
X12750000Y83823600D02*
X12750000Y76250000D01*
D10*
X62300000Y64300000D02*
X62300000Y65345000D01*
D10*
X61250000Y79000000D02*
X61250000Y75250000D01*
D10*
X63250000Y79500000D02*
X63250000Y80250000D01*
D10*
X57500000Y62500000D02*
X57500000Y63500000D01*
D10*
X32000000Y87750000D02*
X30750000Y89000000D01*
D10*
X63750000Y69750000D02*
X65000000Y71000000D01*
D10*
X67700000Y67885000D02*
X65615000Y67885000D01*
D10*
X58250000Y79500000D02*
X58250000Y80250000D01*
D10*
X34500000Y90750000D02*
X34500000Y91750000D01*
D10*
X58250000Y79500000D02*
X57750000Y79000000D01*
D10*
X60500000Y72250000D02*
X59250000Y71000000D01*
D10*
X74250000Y57750000D02*
X76130000Y55870000D01*
D10*
X15499944Y70500008D02*
X14250008Y70500008D01*
D10*
X33000000Y83500000D02*
X33000000Y86750000D01*
D10*
X62000000Y73500000D02*
X62000000Y72250000D01*
D10*
X37000000Y87750000D02*
X37000000Y89250000D01*
D10*
X20250000Y66000000D02*
X23750000Y66000000D01*
D10*
X11000000Y82000000D02*
X11000000Y76750000D01*
D10*
X15500000Y77250000D02*
X15500000Y81500000D01*
D10*
X85000000Y86750000D02*
X86750000Y88500000D01*
D10*
X24770000Y67020000D02*
X24770000Y72250000D01*
D10*
X33500000Y73750000D02*
X48500000Y58750000D01*
D10*
X57500000Y66000000D02*
X56000000Y66000000D01*
D10*
X62000000Y74500000D02*
X62000000Y73500000D01*
D11*
X60250000Y79000000D03*
D11*
X58750000Y79000000D03*
D12*
X64750000Y88500000D03*
D12*
X60750000Y93000000D03*
D12*
X56750000Y89750000D03*
D13*
X62300000Y67885000D03*
D13*
X62300000Y65345000D03*
D14*
X67700000Y67885000D03*
D13*
X62300000Y69155000D03*
D13*
X62300000Y66615000D03*
D14*
X67700000Y65345000D03*
D14*
X67700000Y66615000D03*
D14*
X67700000Y69155000D03*
D15*
X63230000Y38000000D03*
D15*
X56470000Y38000000D03*
D11*
X14250000Y92382600D03*
D11*
X12750000Y92382600D03*
D16*
X62000000Y61000000D03*
D16*
X60500000Y61000000D03*
D17*
X22230000Y72250000D03*
D17*
X24770000Y72250000D03*
D18*
X63250000Y84500000D03*
D18*
X63250000Y83000000D03*
D12*
X86750000Y88500000D03*
D12*
X82750000Y93000000D03*
D12*
X78750000Y89750000D03*
D18*
X58250000Y84500000D03*
D18*
X58250000Y83000000D03*
D19*
X40120000Y38000000D03*
D19*
X46880000Y38000000D03*
D20*
X17250000Y85423600D03*
D20*
X17250000Y83823600D03*
D11*
X37000000Y87750000D03*
D11*
X35500000Y87750000D03*
D21*
X7500000Y76250000D03*
D11*
X14250000Y83823600D03*
D11*
X12750000Y83823600D03*
D22*
X63750000Y77500000D03*
D22*
X65250000Y77500000D03*
D23*
X37000000Y90750000D03*
D23*
X37000000Y89250000D03*
D24*
X61250000Y79000000D03*
D24*
X62750000Y79000000D03*
D24*
X21000000Y78793600D03*
D24*
X22500000Y78793600D03*
D25*
X39100000Y96500000D03*
D25*
X26900000Y96500000D03*
D26*
X29000000Y97750000D03*
D26*
X33000000Y95250000D03*
D26*
X37000000Y95250000D03*
D26*
X37000000Y97750000D03*
D26*
X31000000Y97750000D03*
D26*
X31000000Y95250000D03*
D26*
X29000000Y95250000D03*
D26*
X33000000Y97750000D03*
D11*
X30750000Y90750000D03*
D11*
X29250000Y90750000D03*
D27*
X81500000Y38090000D03*
D27*
X81500000Y45710000D03*
D27*
X81500000Y58410000D03*
D27*
X81500000Y55870000D03*
D22*
X33000000Y90750000D03*
D22*
X34500000Y90750000D03*
D28*
X51020000Y67250000D03*
D28*
X48480000Y69790000D03*
D28*
X51020000Y69790000D03*
D28*
X48480000Y64710000D03*
D28*
X48480000Y67250000D03*
D28*
X51020000Y64710000D03*
D29*
X65000000Y66000000D03*
D30*
X57500000Y68500000D03*
D30*
X65000000Y63500000D03*
D30*
X65000000Y68500000D03*
D31*
X65000000Y71000000D03*
D30*
X57500000Y63500000D03*
D30*
X57500000Y71000000D03*
D30*
X57500000Y66000000D03*
D32*
X63250000Y80250000D03*
D32*
X63250000Y81750000D03*
D33*
X82000000Y23850000D03*
D33*
X75000000Y23850000D03*
D33*
X68000000Y23850000D03*
D34*
X12650000Y66000000D03*
D34*
X20250000Y66000000D03*
D34*
X27850000Y38000000D03*
D34*
X12650000Y38000000D03*
D11*
X57750000Y79000000D03*
D11*
X56250000Y79000000D03*
D20*
X17250000Y93932600D03*
D20*
X17250000Y92332600D03*
D11*
X62000000Y73500000D03*
D11*
X60500000Y73500000D03*
D24*
X63750000Y79000000D03*
D24*
X65250000Y79000000D03*
D16*
X57750000Y77500000D03*
D16*
X56250000Y77500000D03*
D35*
X17499944Y70500008D03*
D35*
X15499944Y70500008D03*
D32*
X58250000Y80250000D03*
D32*
X58250000Y81750000D03*
D21*
X7500000Y82000000D03*
D36*
X34140000Y18400000D03*
D36*
X25000000Y18400000D03*
D36*
X15860000Y18400000D03*
D20*
X17250000Y80343600D03*
D20*
X17250000Y78743600D03*
D37*
X33000000Y88750000D03*
D37*
X17250000Y95000000D03*
D37*
X60000000Y81000000D03*
D37*
X17250000Y81250000D03*
D37*
X17250000Y86500000D03*
D37*
X33000000Y86750000D03*
D37*
X56250000Y81000000D03*
D37*
X65250000Y80000000D03*
D37*
X14250000Y70500000D03*
D37*
X56250000Y80000000D03*
D37*
X55750000Y73750000D03*
D37*
X34500000Y91750000D03*
M02*
