%FSLAX46Y46*%
%MOMM*%
%AMPS15*
21,1,0.800000,0.800000,0.000000,0.000000,270.000000*
%
%ADD15PS15*%
%AMPS12*
21,1,0.600000,1.500000,0.000000,0.000000,90.000000*
%
%ADD12PS12*%
%AMPS11*
21,1,0.600000,1.500000,0.000000,0.000000,270.000000*
%
%ADD11PS11*%
%AMPS20*
21,1,1.000000,1.250000,0.000000,0.000000,180.000000*
%
%ADD20PS20*%
%AMPS13*
21,1,0.800000,0.750000,0.000000,0.000000,0.000000*
%
%ADD13PS13*%
%AMPS14*
21,1,0.800000,0.750000,0.000000,0.000000,90.000000*
%
%ADD14PS14*%
%AMPS16*
21,1,0.800000,0.750000,0.000000,0.000000,180.000000*
%
%ADD16PS16*%
%AMPS18*
21,1,0.500000,0.900000,0.000000,0.000000,0.000000*
%
%ADD18PS18*%
%AMPS19*
21,1,0.500000,0.900000,0.000000,0.000000,90.000000*
%
%ADD19PS19*%
%AMPS10*
21,1,0.500000,0.900000,0.000000,0.000000,180.000000*
%
%ADD10PS10*%
%AMPS17*
21,1,0.500000,0.900000,0.000000,0.000000,270.000000*
%
%ADD17PS17*%
G01*
G01*
%LPD*%
D10*
X60250000Y79000000D03*
D10*
X58750000Y79000000D03*
D11*
X62300000Y67885000D03*
D11*
X62300000Y65345000D03*
D12*
X67700000Y67885000D03*
D11*
X62300000Y69155000D03*
D11*
X62300000Y66615000D03*
D12*
X67700000Y65345000D03*
D12*
X67700000Y66615000D03*
D12*
X67700000Y69155000D03*
D10*
X14250000Y92382600D03*
D10*
X12750000Y92382600D03*
D13*
X62000000Y61000000D03*
D13*
X60500000Y61000000D03*
D14*
X63250000Y84500000D03*
D14*
X63250000Y83000000D03*
D14*
X58250000Y84500000D03*
D14*
X58250000Y83000000D03*
D15*
X17250000Y85423600D03*
D15*
X17250000Y83823600D03*
D10*
X37000000Y87750000D03*
D10*
X35500000Y87750000D03*
D10*
X14250000Y83823600D03*
D10*
X12750000Y83823600D03*
D16*
X63750000Y77500000D03*
D16*
X65250000Y77500000D03*
D17*
X37000000Y90750000D03*
D17*
X37000000Y89250000D03*
D18*
X61250000Y79000000D03*
D18*
X62750000Y79000000D03*
D18*
X21000000Y78793600D03*
D18*
X22500000Y78793600D03*
D10*
X30750000Y90750000D03*
D10*
X29250000Y90750000D03*
D16*
X33000000Y90750000D03*
D16*
X34500000Y90750000D03*
D19*
X63250000Y80250000D03*
D19*
X63250000Y81750000D03*
D10*
X57750000Y79000000D03*
D10*
X56250000Y79000000D03*
D15*
X17250000Y93932600D03*
D15*
X17250000Y92332600D03*
D10*
X62000000Y73500000D03*
D10*
X60500000Y73500000D03*
D18*
X63750000Y79000000D03*
D18*
X65250000Y79000000D03*
D13*
X57750000Y77500000D03*
D13*
X56250000Y77500000D03*
D20*
X17499944Y70500008D03*
D20*
X15499944Y70500008D03*
D19*
X58250000Y80250000D03*
D19*
X58250000Y81750000D03*
D15*
X17250000Y80343600D03*
D15*
X17250000Y78743600D03*
M02*
