%FSLAX46Y46*%
%MOMM*%
%ADD11C,0.300000*%
%ADD12C,2.000000*%
%ADD10C,3.000000*%
%AMPS18*
1,1,2.000000,0.000000,0.000000*
%
%ADD18PS18*%
%AMPS19*
1,1,1.500000,0.000000,0.000000*
%
%ADD19PS19*%
%AMPS23*
1,1,1.350000,0.000000,0.000000*
%
%ADD23PS23*%
%AMPS22*
1,1,1.300000,0.000000,0.000000*
%
%ADD22PS22*%
%AMPS26*
1,1,1.550000,0.000000,0.000000*
%
%ADD26PS26*%
%AMPS25*
1,1,3.000000,0.000000,0.000000*
%
%ADD25PS25*%
%AMPS17*
1,1,2.200000,0.000000,0.000000*
%
%ADD17PS17*%
%AMPS24*
1,1,1.350000,0.000000,0.000000*
%
%ADD24PS24*%
%AMPS27*
1,1,3.000000,0.000000,0.000000*
%
%ADD27PS27*%
%AMPS13*
1,1,1.850000,0.000000,0.000000*
%
%ADD13PS13*%
%AMPS21*
1,1,1.700000,0.000000,0.000000*
%
%ADD21PS21*%
%AMPS15*
1,1,1.700000,0.000000,0.000000*
%
%ADD15PS15*%
%AMPS20*
1,1,1.700000,0.000000,0.000000*
%
%ADD20PS20*%
%AMPS16*
1,1,2.900000,0.000000,0.000000*
%
%ADD16PS16*%
%AMPS14*
1,1,2.900000,0.000000,0.000000*
%
%ADD14PS14*%
%AMPS28*
1,1,0.600000,0.000000,0.000000*
%
%ADD28PS28*%
G01*
%LPD*%
G36*
X82570307Y58160000D02*
X82552922Y58090598D01*
X82516547Y57988935D01*
X82470382Y57891327D01*
X82414864Y57798702D01*
X82350543Y57711976D01*
X82309920Y57667155D01*
X82289596Y57632937D01*
X82284227Y57593501D01*
X82294665Y57555095D01*
X82319257Y57523801D01*
X82354106Y57504578D01*
X82384016Y57500000D01*
X98900000Y57500000D01*
X98939004Y57507920D01*
X98971829Y57530425D01*
X98993277Y57563952D01*
X99000000Y57600000D01*
X99000000Y98900000D01*
X98992080Y98939004D01*
X98969575Y98971829D01*
X98936048Y98993277D01*
X98900000Y99000000D01*
X37715242Y99000000D01*
X37676238Y98992080D01*
X37643413Y98969575D01*
X37621965Y98936048D01*
X37615293Y98896812D01*
X37624452Y98858081D01*
X37663832Y98814227D01*
X37674189Y98808019D01*
X37719481Y98777756D01*
X37774660Y98736832D01*
X37816739Y98702299D01*
X37867636Y98656170D01*
X37906170Y98617636D01*
X37952299Y98566739D01*
X37986832Y98524660D01*
X38027756Y98469481D01*
X38058019Y98424189D01*
X38093328Y98365280D01*
X38119006Y98317240D01*
X38148376Y98255142D01*
X38169217Y98204827D01*
X38192354Y98140166D01*
X38208168Y98088034D01*
X38224859Y98021401D01*
X38235483Y97967993D01*
X38245562Y97900040D01*
X38250899Y97845846D01*
X38254271Y97777225D01*
X38254271Y97722775D01*
X38250899Y97654154D01*
X38248666Y97631477D01*
X38252726Y97591885D01*
X38271906Y97557012D01*
X38303168Y97532382D01*
X38341561Y97521896D01*
X38381004Y97527215D01*
X38400789Y97537675D01*
X38401157Y97537061D01*
X38510619Y97602671D01*
X38621532Y97655129D01*
X38737054Y97696463D01*
X38850000Y97724754D01*
X38850000Y96750000D01*
X37864937Y96750000D01*
X37863903Y96745874D01*
X37850474Y96655343D01*
X37849663Y96660666D01*
X37828796Y96694556D01*
X37796362Y96717623D01*
X37757501Y96726213D01*
X37718367Y96718966D01*
X37700225Y96709376D01*
X37674195Y96691984D01*
X37615280Y96656672D01*
X37567240Y96630994D01*
X37505142Y96601624D01*
X37482845Y96592388D01*
X37449841Y96570145D01*
X37428127Y96536791D01*
X37421142Y96497609D01*
X37429992Y96458806D01*
X37453276Y96426528D01*
X37482845Y96407612D01*
X37505142Y96398376D01*
X37567240Y96369006D01*
X37615280Y96343328D01*
X37674189Y96308019D01*
X37700223Y96290624D01*
X37737054Y96275540D01*
X37776850Y96276016D01*
X37813309Y96291976D01*
X37840656Y96320893D01*
X37850201Y96346498D01*
X37863903Y96254126D01*
X37864937Y96250000D01*
X38850000Y96250000D01*
X38850000Y95275246D01*
X38737054Y95303537D01*
X38621532Y95344871D01*
X38510619Y95397329D01*
X38401157Y95462939D01*
X38400592Y95461996D01*
X38371720Y95475515D01*
X38331949Y95476997D01*
X38294749Y95462849D01*
X38266013Y95435313D01*
X38250293Y95398749D01*
X38248666Y95368523D01*
X38250899Y95345846D01*
X38254271Y95277225D01*
X38254271Y95222775D01*
X38250899Y95154154D01*
X38245562Y95099960D01*
X38235483Y95032007D01*
X38224859Y94978599D01*
X38208168Y94911966D01*
X38192354Y94859834D01*
X38169217Y94795173D01*
X38148376Y94744858D01*
X38119006Y94682760D01*
X38093328Y94634720D01*
X38058019Y94575811D01*
X38027756Y94530519D01*
X37986832Y94475340D01*
X37952299Y94433261D01*
X37906170Y94382364D01*
X37867639Y94343833D01*
X37816753Y94297713D01*
X37774650Y94263160D01*
X37719465Y94222232D01*
X37674199Y94191987D01*
X37615280Y94156672D01*
X37567240Y94130994D01*
X37505142Y94101624D01*
X37454827Y94080783D01*
X37390161Y94057645D01*
X37338028Y94041831D01*
X37271414Y94025145D01*
X37217991Y94014519D01*
X37150025Y94004437D01*
X37095861Y93999101D01*
X37027225Y93995729D01*
X36972775Y93995729D01*
X36904139Y93999101D01*
X36849975Y94004437D01*
X36782009Y94014519D01*
X36728586Y94025145D01*
X36661972Y94041831D01*
X36609839Y94057645D01*
X36545173Y94080783D01*
X36494858Y94101624D01*
X36432760Y94130994D01*
X36384720Y94156672D01*
X36325801Y94191987D01*
X36280535Y94222232D01*
X36225350Y94263160D01*
X36183247Y94297713D01*
X36132361Y94343833D01*
X36093830Y94382364D01*
X36047701Y94433261D01*
X36013168Y94475340D01*
X35972240Y94530524D01*
X35941992Y94575793D01*
X35906660Y94634740D01*
X35880995Y94682756D01*
X35851624Y94744856D01*
X35830783Y94795173D01*
X35807646Y94859834D01*
X35791832Y94911966D01*
X35775141Y94978599D01*
X35764517Y95032007D01*
X35754438Y95099960D01*
X35749101Y95154154D01*
X35745729Y95222775D01*
X35745729Y95277225D01*
X35749101Y95345861D01*
X35754437Y95400025D01*
X35764519Y95467991D01*
X35775145Y95521414D01*
X35791831Y95588028D01*
X35807645Y95640161D01*
X35830783Y95704827D01*
X35851624Y95755142D01*
X35880994Y95817240D01*
X35906672Y95865280D01*
X35941981Y95924189D01*
X35972244Y95969481D01*
X36013168Y96024660D01*
X36047701Y96066739D01*
X36093830Y96117636D01*
X36132364Y96156170D01*
X36183261Y96202299D01*
X36225340Y96236832D01*
X36280519Y96277756D01*
X36325811Y96308019D01*
X36384720Y96343328D01*
X36432760Y96369006D01*
X36494858Y96398376D01*
X36517155Y96407612D01*
X36550159Y96429855D01*
X36571873Y96463209D01*
X36578858Y96502391D01*
X36570008Y96541194D01*
X36546724Y96573472D01*
X36517155Y96592388D01*
X36494858Y96601624D01*
X36432760Y96630994D01*
X36384720Y96656672D01*
X36325801Y96691987D01*
X36280535Y96722232D01*
X36225350Y96763160D01*
X36183247Y96797713D01*
X36132361Y96843833D01*
X36093830Y96882364D01*
X36047701Y96933261D01*
X36013168Y96975340D01*
X35972240Y97030524D01*
X35941992Y97075793D01*
X35906660Y97134740D01*
X35880995Y97182756D01*
X35851624Y97244856D01*
X35830783Y97295173D01*
X35807646Y97359834D01*
X35791832Y97411966D01*
X35775141Y97478599D01*
X35764517Y97532007D01*
X35754438Y97599960D01*
X35749101Y97654154D01*
X35745729Y97722775D01*
X35745729Y97777225D01*
X35749101Y97845861D01*
X35754437Y97900025D01*
X35764519Y97967991D01*
X35775145Y98021414D01*
X35791831Y98088028D01*
X35807645Y98140161D01*
X35830783Y98204827D01*
X35851624Y98255142D01*
X35880994Y98317240D01*
X35906672Y98365280D01*
X35941981Y98424189D01*
X35972244Y98469481D01*
X36013168Y98524660D01*
X36047701Y98566739D01*
X36093830Y98617636D01*
X36132364Y98656170D01*
X36183261Y98702299D01*
X36225340Y98736832D01*
X36280519Y98777756D01*
X36325811Y98808019D01*
X36336168Y98814227D01*
X36365551Y98841072D01*
X36382136Y98877251D01*
X36383297Y98917034D01*
X36368849Y98954118D01*
X36341081Y98982630D01*
X36284758Y99000000D01*
X33715242Y99000000D01*
X33676238Y98992080D01*
X33643413Y98969575D01*
X33621965Y98936048D01*
X33615293Y98896812D01*
X33624452Y98858081D01*
X33663832Y98814227D01*
X33674189Y98808019D01*
X33719481Y98777756D01*
X33774660Y98736832D01*
X33816739Y98702299D01*
X33867636Y98656170D01*
X33906170Y98617636D01*
X33952299Y98566739D01*
X33986832Y98524660D01*
X34027756Y98469481D01*
X34058019Y98424189D01*
X34093328Y98365280D01*
X34119006Y98317240D01*
X34148376Y98255142D01*
X34169217Y98204827D01*
X34192354Y98140166D01*
X34208168Y98088034D01*
X34224859Y98021401D01*
X34235483Y97967993D01*
X34245562Y97900040D01*
X34250899Y97845846D01*
X34254271Y97777225D01*
X34254271Y97722775D01*
X34250899Y97654154D01*
X34245562Y97599960D01*
X34235483Y97532007D01*
X34224859Y97478599D01*
X34208168Y97411966D01*
X34192354Y97359834D01*
X34169217Y97295173D01*
X34148376Y97244858D01*
X34119006Y97182760D01*
X34093328Y97134720D01*
X34058019Y97075811D01*
X34027756Y97030519D01*
X33986832Y96975340D01*
X33952299Y96933261D01*
X33906170Y96882364D01*
X33867639Y96843833D01*
X33816753Y96797713D01*
X33774650Y96763160D01*
X33719465Y96722232D01*
X33674199Y96691987D01*
X33615280Y96656672D01*
X33567240Y96630994D01*
X33505142Y96601624D01*
X33482845Y96592388D01*
X33449841Y96570145D01*
X33428127Y96536791D01*
X33421142Y96497609D01*
X33429992Y96458806D01*
X33453276Y96426528D01*
X33482845Y96407612D01*
X33505142Y96398376D01*
X33567240Y96369006D01*
X33615280Y96343328D01*
X33674189Y96308019D01*
X33719481Y96277756D01*
X33774660Y96236832D01*
X33816739Y96202299D01*
X33867636Y96156170D01*
X33906170Y96117636D01*
X33952299Y96066739D01*
X33986832Y96024660D01*
X34027756Y95969481D01*
X34058019Y95924189D01*
X34093328Y95865280D01*
X34119006Y95817240D01*
X34148376Y95755142D01*
X34169217Y95704827D01*
X34192354Y95640166D01*
X34208168Y95588034D01*
X34224859Y95521401D01*
X34235483Y95467993D01*
X34245562Y95400040D01*
X34250899Y95345846D01*
X34254271Y95277225D01*
X34254271Y95222775D01*
X34250899Y95154154D01*
X34245562Y95099960D01*
X34235483Y95032007D01*
X34224859Y94978599D01*
X34208168Y94911966D01*
X34192354Y94859834D01*
X34169217Y94795173D01*
X34148376Y94744858D01*
X34119006Y94682760D01*
X34093328Y94634720D01*
X34058019Y94575811D01*
X34027756Y94530519D01*
X33986832Y94475340D01*
X33952299Y94433261D01*
X33906170Y94382364D01*
X33867639Y94343833D01*
X33816753Y94297713D01*
X33774650Y94263160D01*
X33719465Y94222232D01*
X33674199Y94191987D01*
X33615280Y94156672D01*
X33567240Y94130994D01*
X33505142Y94101624D01*
X33454827Y94080783D01*
X33390161Y94057645D01*
X33338028Y94041831D01*
X33271414Y94025145D01*
X33217991Y94014519D01*
X33150025Y94004437D01*
X33095861Y93999101D01*
X33027225Y93995729D01*
X32972775Y93995729D01*
X32904139Y93999101D01*
X32849975Y94004437D01*
X32782009Y94014519D01*
X32728586Y94025145D01*
X32661972Y94041831D01*
X32609839Y94057645D01*
X32545173Y94080783D01*
X32494858Y94101624D01*
X32432760Y94130994D01*
X32384720Y94156672D01*
X32325801Y94191987D01*
X32280535Y94222232D01*
X32225350Y94263160D01*
X32183247Y94297713D01*
X32132361Y94343833D01*
X32093820Y94382374D01*
X32074096Y94404137D01*
X32042035Y94427719D01*
X32003316Y94436928D01*
X31964071Y94430306D01*
X31925904Y94404137D01*
X31906180Y94382374D01*
X31867639Y94343833D01*
X31816753Y94297713D01*
X31774650Y94263160D01*
X31719465Y94222232D01*
X31674199Y94191987D01*
X31615280Y94156672D01*
X31567240Y94130994D01*
X31505142Y94101624D01*
X31454827Y94080783D01*
X31390161Y94057645D01*
X31338028Y94041831D01*
X31271414Y94025145D01*
X31217991Y94014519D01*
X31150025Y94004437D01*
X31095861Y93999101D01*
X31027225Y93995729D01*
X30972775Y93995729D01*
X30904139Y93999101D01*
X30849975Y94004437D01*
X30782009Y94014519D01*
X30728586Y94025145D01*
X30661972Y94041831D01*
X30609839Y94057645D01*
X30545173Y94080783D01*
X30494858Y94101624D01*
X30432760Y94130994D01*
X30384720Y94156672D01*
X30325801Y94191987D01*
X30280535Y94222232D01*
X30225350Y94263160D01*
X30183247Y94297713D01*
X30132361Y94343833D01*
X30093830Y94382364D01*
X30047701Y94433261D01*
X30013168Y94475340D01*
X29972240Y94530524D01*
X29941986Y94575801D01*
X29929841Y94596064D01*
X29902996Y94625447D01*
X29866817Y94642032D01*
X29827034Y94643193D01*
X29789950Y94628745D01*
X29769971Y94611808D01*
X29707320Y94542680D01*
X29634586Y94476759D01*
X29555734Y94418278D01*
X29471540Y94367815D01*
X29382793Y94325841D01*
X29290373Y94292772D01*
X29250000Y94282659D01*
X29250000Y96217341D01*
X29290373Y96207228D01*
X29382793Y96174159D01*
X29471540Y96132185D01*
X29555736Y96081720D01*
X29634582Y96023243D01*
X29707320Y95957320D01*
X29769971Y95888192D01*
X29802032Y95864610D01*
X29840752Y95855401D01*
X29879997Y95862023D01*
X29913550Y95883428D01*
X29929840Y95903934D01*
X29941982Y95924191D01*
X29972244Y95969481D01*
X30013168Y96024660D01*
X30047701Y96066739D01*
X30093830Y96117636D01*
X30132364Y96156170D01*
X30183261Y96202299D01*
X30225340Y96236832D01*
X30280519Y96277756D01*
X30325811Y96308019D01*
X30384720Y96343328D01*
X30432760Y96369006D01*
X30494858Y96398376D01*
X30517155Y96407612D01*
X30550159Y96429855D01*
X30571873Y96463209D01*
X30578858Y96502391D01*
X30570008Y96541194D01*
X30546724Y96573472D01*
X30517155Y96592388D01*
X30494858Y96601624D01*
X30432760Y96630994D01*
X30384720Y96656672D01*
X30325801Y96691987D01*
X30280535Y96722232D01*
X30225350Y96763160D01*
X30183247Y96797713D01*
X30132361Y96843833D01*
X30093820Y96882374D01*
X30074096Y96904137D01*
X30042035Y96927719D01*
X30003316Y96936928D01*
X29964071Y96930306D01*
X29925904Y96904137D01*
X29906180Y96882374D01*
X29867639Y96843833D01*
X29816753Y96797713D01*
X29774650Y96763160D01*
X29719465Y96722232D01*
X29674199Y96691987D01*
X29615280Y96656672D01*
X29567240Y96630994D01*
X29505142Y96601624D01*
X29454827Y96580783D01*
X29390161Y96557645D01*
X29338028Y96541831D01*
X29271414Y96525145D01*
X29217991Y96514519D01*
X29150025Y96504437D01*
X29095861Y96499101D01*
X29027225Y96495729D01*
X28972775Y96495729D01*
X28904139Y96499101D01*
X28849975Y96504437D01*
X28782009Y96514519D01*
X28728586Y96525145D01*
X28661972Y96541831D01*
X28609839Y96557645D01*
X28545173Y96580783D01*
X28494858Y96601624D01*
X28432760Y96630994D01*
X28384720Y96656672D01*
X28325805Y96691984D01*
X28299775Y96709376D01*
X28262944Y96724459D01*
X28223147Y96723983D01*
X28186689Y96708021D01*
X28159343Y96679104D01*
X28149799Y96653500D01*
X28136097Y96745874D01*
X28135063Y96750000D01*
X27150000Y96750000D01*
X27150000Y97724754D01*
X27262946Y97696463D01*
X27378468Y97655129D01*
X27489381Y97602671D01*
X27598843Y97537061D01*
X27599408Y97538004D01*
X27628280Y97524485D01*
X27668051Y97523003D01*
X27705251Y97537151D01*
X27733987Y97564687D01*
X27749707Y97601251D01*
X27751334Y97631477D01*
X27749101Y97654154D01*
X27745729Y97722775D01*
X27745729Y97777225D01*
X27749101Y97845861D01*
X27754437Y97900025D01*
X27764519Y97967991D01*
X27775145Y98021414D01*
X27791831Y98088028D01*
X27807645Y98140161D01*
X27830783Y98204827D01*
X27851624Y98255142D01*
X27880994Y98317240D01*
X27906672Y98365280D01*
X27941981Y98424189D01*
X27972244Y98469481D01*
X28013168Y98524660D01*
X28047701Y98566739D01*
X28093830Y98617636D01*
X28132364Y98656170D01*
X28183261Y98702299D01*
X28225340Y98736832D01*
X28280519Y98777756D01*
X28325811Y98808019D01*
X28336168Y98814227D01*
X28365551Y98841072D01*
X28382136Y98877251D01*
X28383297Y98917034D01*
X28368849Y98954118D01*
X28341081Y98982630D01*
X28284758Y99000000D01*
X18225919Y99000000D01*
X18186915Y98992080D01*
X18154090Y98969575D01*
X18132642Y98936048D01*
X18125970Y98896812D01*
X18135129Y98858081D01*
X18155208Y98829289D01*
X18182608Y98801889D01*
X18231190Y98748288D01*
X18265761Y98706164D01*
X18308849Y98648067D01*
X18339124Y98602757D01*
X18376309Y98540717D01*
X18401988Y98492673D01*
X18432925Y98427262D01*
X18453775Y98376929D01*
X18478146Y98308814D01*
X18493954Y98256703D01*
X18511537Y98186511D01*
X18522165Y98133080D01*
X18532784Y98061487D01*
X18538119Y98007327D01*
X18541671Y97935025D01*
X18541671Y97880575D01*
X18538119Y97808273D01*
X18532784Y97754113D01*
X18522165Y97682520D01*
X18511537Y97629089D01*
X18493954Y97558897D01*
X18478146Y97506786D01*
X18453775Y97438671D01*
X18432925Y97388338D01*
X18401980Y97322911D01*
X18376321Y97274905D01*
X18339110Y97212822D01*
X18308867Y97167559D01*
X18265744Y97109414D01*
X18231201Y97067324D01*
X18182608Y97013711D01*
X18144089Y96975192D01*
X18090488Y96926610D01*
X18048364Y96892039D01*
X17990267Y96848951D01*
X17944957Y96818676D01*
X17882901Y96781482D01*
X17834886Y96755818D01*
X17769452Y96724870D01*
X17719138Y96704029D01*
X17651016Y96679654D01*
X17598903Y96663846D01*
X17528711Y96646263D01*
X17475280Y96635635D01*
X17403687Y96625016D01*
X17349527Y96619681D01*
X17277225Y96616129D01*
X17222775Y96616129D01*
X17150473Y96619681D01*
X17096313Y96625016D01*
X17024720Y96635635D01*
X16971289Y96646263D01*
X16901097Y96663846D01*
X16848984Y96679654D01*
X16780862Y96704029D01*
X16730548Y96724870D01*
X16665114Y96755818D01*
X16617099Y96781482D01*
X16555043Y96818676D01*
X16509733Y96848951D01*
X16451636Y96892039D01*
X16409512Y96926610D01*
X16355911Y96975192D01*
X16317392Y97013711D01*
X16268810Y97067312D01*
X16234239Y97109436D01*
X16191151Y97167533D01*
X16160876Y97212843D01*
X16123682Y97274899D01*
X16098018Y97322914D01*
X16067070Y97388348D01*
X16046229Y97438662D01*
X16021854Y97506784D01*
X16006046Y97558897D01*
X15988463Y97629089D01*
X15977835Y97682520D01*
X15967216Y97754113D01*
X15961881Y97808273D01*
X15958329Y97880575D01*
X15958329Y97935025D01*
X15961881Y98007327D01*
X15967216Y98061487D01*
X15977835Y98133080D01*
X15988463Y98186511D01*
X16006046Y98256703D01*
X16021854Y98308816D01*
X16046229Y98376938D01*
X16067070Y98427252D01*
X16098014Y98492677D01*
X16123684Y98540703D01*
X16160890Y98602778D01*
X16191133Y98648041D01*
X16234256Y98706186D01*
X16268799Y98748276D01*
X16317392Y98801889D01*
X16344792Y98829289D01*
X16366771Y98862469D01*
X16374068Y98901594D01*
X16365528Y98940466D01*
X16342502Y98972929D01*
X16308638Y98993839D01*
X16274081Y99000000D01*
X1100000Y99000000D01*
X1060996Y98992080D01*
X1028171Y98969575D01*
X1006723Y98936048D01*
X1000000Y98900000D01*
X1000000Y57600000D01*
X1007920Y57560996D01*
X1030425Y57528171D01*
X1063952Y57506723D01*
X1100000Y57500000D01*
X80615984Y57500000D01*
X80654988Y57507920D01*
X80687813Y57530425D01*
X80709261Y57563952D01*
X80715933Y57603188D01*
X80706774Y57641919D01*
X80690080Y57667155D01*
X80649457Y57711976D01*
X80585133Y57798706D01*
X80529620Y57891323D01*
X80483453Y57988936D01*
X80447078Y58090598D01*
X80429693Y58160000D01*
X82570307Y58160000D01*
D02*
G37*
%LPC*%
G36*
X26650000Y96750000D02*
X25675246Y96750000D01*
X25703537Y96862946D01*
X25744871Y96978468D01*
X25797329Y97089381D01*
X25860415Y97194632D01*
X25933507Y97293185D01*
X26015904Y97384096D01*
X26106815Y97466493D01*
X26205368Y97539585D01*
X26310619Y97602671D01*
X26421532Y97655129D01*
X26537054Y97696463D01*
X26650000Y97724754D01*
X26650000Y96750000D01*
D02*
G37*
%LPC*%
G36*
X40324754Y96750000D02*
X39350000Y96750000D01*
X39350000Y97724754D01*
X39462946Y97696463D01*
X39578468Y97655129D01*
X39689381Y97602671D01*
X39794632Y97539585D01*
X39893185Y97466493D01*
X39984096Y97384096D01*
X40066493Y97293185D01*
X40139585Y97194632D01*
X40202671Y97089381D01*
X40255129Y96978468D01*
X40296463Y96862946D01*
X40324754Y96750000D01*
D02*
G37*
%LPC*%
G36*
X39350000Y95275246D02*
X39350000Y96250000D01*
X40324754Y96250000D01*
X40296463Y96137054D01*
X40255129Y96021532D01*
X40202671Y95910619D01*
X40139585Y95805368D01*
X40066493Y95706815D01*
X39984096Y95615904D01*
X39893185Y95533507D01*
X39794632Y95460415D01*
X39689381Y95397329D01*
X39578468Y95344871D01*
X39462946Y95303537D01*
X39350000Y95275246D01*
D02*
G37*
%LPC*%
G36*
X27150000Y95275246D02*
X27150000Y96250000D01*
X28124754Y96250000D01*
X28096463Y96137054D01*
X28055130Y96021537D01*
X28008327Y95922580D01*
X27998811Y95883935D01*
X28005121Y95844639D01*
X28008382Y95839436D01*
X27978334Y95833623D01*
X27936165Y95800757D01*
X27866493Y95706815D01*
X27784096Y95615904D01*
X27693185Y95533507D01*
X27594632Y95460415D01*
X27489381Y95397329D01*
X27378468Y95344871D01*
X27262946Y95303537D01*
X27150000Y95275246D01*
D02*
G37*
%LPC*%
G36*
X26650000Y95275246D02*
X26537054Y95303537D01*
X26421532Y95344871D01*
X26310619Y95397329D01*
X26205368Y95460415D01*
X26106815Y95533507D01*
X26015904Y95615904D01*
X25933507Y95706815D01*
X25860415Y95805368D01*
X25797329Y95910619D01*
X25744871Y96021532D01*
X25703537Y96137054D01*
X25675246Y96250000D01*
X26650000Y96250000D01*
X26650000Y95275246D01*
D02*
G37*
%LPC*%
G36*
X28750000Y95500000D02*
X28032659Y95500000D01*
X28042772Y95540373D01*
X28075842Y95632797D01*
X28106885Y95698432D01*
X28116401Y95737077D01*
X28110091Y95776373D01*
X28106831Y95781575D01*
X28136877Y95787388D01*
X28179046Y95820253D01*
X28226757Y95884582D01*
X28292680Y95957320D01*
X28365418Y96023243D01*
X28444264Y96081720D01*
X28528460Y96132185D01*
X28617207Y96174159D01*
X28709627Y96207228D01*
X28750000Y96217341D01*
X28750000Y95500000D01*
D02*
G37*
%LPC*%
G36*
X53513618Y89645182D02*
X53486382Y89645182D01*
X53447139Y89646146D01*
X53419899Y89647484D01*
X53380747Y89650372D01*
X53353670Y89653039D01*
X53314692Y89657846D01*
X53287731Y89661846D01*
X53249014Y89668564D01*
X53222336Y89673871D01*
X53184042Y89682470D01*
X53157595Y89689094D01*
X53119734Y89699571D01*
X53093708Y89707467D01*
X53056389Y89719796D01*
X53030736Y89728974D01*
X52994113Y89743102D01*
X52968966Y89753518D01*
X52933048Y89769439D01*
X52908448Y89781075D01*
X52873332Y89798749D01*
X52849326Y89811580D01*
X52815188Y89830919D01*
X52791792Y89844943D01*
X52758616Y89865952D01*
X52735987Y89881071D01*
X52703894Y89903674D01*
X52681986Y89919922D01*
X52651054Y89944062D01*
X52629972Y89961363D01*
X52600254Y89986997D01*
X52580069Y90005293D01*
X52551634Y90032366D01*
X52532366Y90051634D01*
X52505293Y90080069D01*
X52486997Y90100254D01*
X52461363Y90129972D01*
X52444062Y90151054D01*
X52419922Y90181986D01*
X52403674Y90203894D01*
X52381071Y90235987D01*
X52365952Y90258616D01*
X52344943Y90291792D01*
X52330919Y90315188D01*
X52311580Y90349326D01*
X52298749Y90373332D01*
X52281075Y90408448D01*
X52269439Y90433048D01*
X52253518Y90468966D01*
X52243102Y90494113D01*
X52228974Y90530736D01*
X52219796Y90556389D01*
X52207467Y90593708D01*
X52199571Y90619734D01*
X52189094Y90657595D01*
X52182470Y90684042D01*
X52173871Y90722336D01*
X52168564Y90749014D01*
X52161846Y90787731D01*
X52157846Y90814692D01*
X52153039Y90853670D01*
X52150372Y90880747D01*
X52147484Y90919899D01*
X52146146Y90947139D01*
X52145166Y90987040D01*
X52145000Y91000572D01*
X52145000Y93999428D01*
X52145166Y94012960D01*
X52146146Y94052861D01*
X52147484Y94080101D01*
X52150372Y94119253D01*
X52153039Y94146330D01*
X52157846Y94185308D01*
X52161846Y94212269D01*
X52168564Y94250986D01*
X52173871Y94277664D01*
X52182470Y94315958D01*
X52189095Y94342408D01*
X52199569Y94380255D01*
X52207474Y94406315D01*
X52219793Y94443605D01*
X52228970Y94469253D01*
X52243102Y94505887D01*
X52253518Y94531034D01*
X52269439Y94566952D01*
X52281075Y94591552D01*
X52298749Y94626668D01*
X52311580Y94650674D01*
X52330919Y94684812D01*
X52344943Y94708208D01*
X52365952Y94741384D01*
X52381071Y94764013D01*
X52403674Y94796106D01*
X52419922Y94818014D01*
X52444062Y94848946D01*
X52461363Y94870028D01*
X52486997Y94899746D01*
X52505293Y94919931D01*
X52532366Y94948366D01*
X52551634Y94967634D01*
X52580069Y94994707D01*
X52600254Y95013003D01*
X52629972Y95038637D01*
X52651054Y95055938D01*
X52681986Y95080078D01*
X52703894Y95096326D01*
X52735987Y95118929D01*
X52758616Y95134048D01*
X52791792Y95155057D01*
X52815188Y95169081D01*
X52849326Y95188420D01*
X52873332Y95201251D01*
X52908448Y95218925D01*
X52933048Y95230561D01*
X52968966Y95246482D01*
X52994113Y95256898D01*
X53030747Y95271030D01*
X53056395Y95280207D01*
X53093685Y95292526D01*
X53119745Y95300431D01*
X53157592Y95310905D01*
X53184042Y95317530D01*
X53222336Y95326129D01*
X53249014Y95331436D01*
X53287731Y95338154D01*
X53314692Y95342154D01*
X53353670Y95346961D01*
X53380747Y95349628D01*
X53419899Y95352516D01*
X53447139Y95353854D01*
X53486382Y95354818D01*
X53513618Y95354818D01*
X53552861Y95353854D01*
X53580101Y95352516D01*
X53619253Y95349628D01*
X53646330Y95346961D01*
X53685308Y95342154D01*
X53712269Y95338154D01*
X53750986Y95331436D01*
X53777664Y95326129D01*
X53815958Y95317530D01*
X53842408Y95310905D01*
X53880255Y95300431D01*
X53906315Y95292526D01*
X53943605Y95280207D01*
X53969253Y95271030D01*
X54005887Y95256898D01*
X54031034Y95246482D01*
X54066952Y95230561D01*
X54091552Y95218925D01*
X54126668Y95201251D01*
X54150674Y95188420D01*
X54184812Y95169081D01*
X54208208Y95155057D01*
X54241384Y95134048D01*
X54264013Y95118929D01*
X54296106Y95096326D01*
X54318014Y95080078D01*
X54348946Y95055938D01*
X54370028Y95038637D01*
X54399746Y95013003D01*
X54419931Y94994707D01*
X54448366Y94967634D01*
X54467634Y94948366D01*
X54494707Y94919931D01*
X54513003Y94899746D01*
X54538637Y94870028D01*
X54555938Y94848946D01*
X54580078Y94818014D01*
X54596326Y94796106D01*
X54618929Y94764013D01*
X54634048Y94741384D01*
X54655057Y94708208D01*
X54669081Y94684812D01*
X54688420Y94650674D01*
X54701251Y94626668D01*
X54718925Y94591552D01*
X54730561Y94566952D01*
X54746482Y94531034D01*
X54756898Y94505887D01*
X54771030Y94469253D01*
X54780207Y94443605D01*
X54792526Y94406315D01*
X54800431Y94380255D01*
X54810905Y94342408D01*
X54817530Y94315958D01*
X54826129Y94277664D01*
X54831436Y94250986D01*
X54838154Y94212269D01*
X54842154Y94185308D01*
X54846961Y94146330D01*
X54849628Y94119253D01*
X54852516Y94080101D01*
X54853854Y94052861D01*
X54854834Y94012960D01*
X54855000Y93999428D01*
X54855000Y91000572D01*
X54854834Y90987040D01*
X54853854Y90947139D01*
X54852516Y90919899D01*
X54849628Y90880747D01*
X54846961Y90853670D01*
X54842154Y90814692D01*
X54838154Y90787731D01*
X54831436Y90749014D01*
X54826129Y90722336D01*
X54817530Y90684042D01*
X54810905Y90657592D01*
X54800431Y90619745D01*
X54792526Y90593685D01*
X54780203Y90556381D01*
X54771032Y90530750D01*
X54756904Y90494126D01*
X54746474Y90468948D01*
X54730559Y90433046D01*
X54718933Y90408462D01*
X54701251Y90373332D01*
X54688420Y90349326D01*
X54669081Y90315188D01*
X54655057Y90291792D01*
X54634048Y90258616D01*
X54618929Y90235987D01*
X54596326Y90203894D01*
X54580078Y90181986D01*
X54555938Y90151054D01*
X54538637Y90129972D01*
X54513003Y90100254D01*
X54494707Y90080069D01*
X54467634Y90051634D01*
X54448366Y90032366D01*
X54419934Y90005295D01*
X54399746Y89986998D01*
X54370032Y89961367D01*
X54348931Y89944049D01*
X54318002Y89919912D01*
X54296127Y89903688D01*
X54264013Y89881071D01*
X54241384Y89865952D01*
X54208208Y89844943D01*
X54184812Y89830919D01*
X54150674Y89811580D01*
X54126668Y89798749D01*
X54091552Y89781075D01*
X54066952Y89769439D01*
X54031034Y89753518D01*
X54005887Y89743102D01*
X53969253Y89728970D01*
X53943605Y89719793D01*
X53906315Y89707474D01*
X53880255Y89699569D01*
X53842408Y89689095D01*
X53815958Y89682470D01*
X53777664Y89673871D01*
X53750986Y89668564D01*
X53712269Y89661846D01*
X53685308Y89657846D01*
X53646330Y89653039D01*
X53619253Y89650372D01*
X53580101Y89647484D01*
X53552861Y89646146D01*
X53513618Y89645182D01*
D02*
G37*
%LPC*%
G36*
X68013618Y89645182D02*
X67986382Y89645182D01*
X67947139Y89646146D01*
X67919899Y89647484D01*
X67880747Y89650372D01*
X67853670Y89653039D01*
X67814692Y89657846D01*
X67787731Y89661846D01*
X67749014Y89668564D01*
X67722336Y89673871D01*
X67684042Y89682470D01*
X67657595Y89689094D01*
X67619734Y89699571D01*
X67593708Y89707467D01*
X67556389Y89719796D01*
X67530736Y89728974D01*
X67494113Y89743102D01*
X67468966Y89753518D01*
X67433048Y89769439D01*
X67408448Y89781075D01*
X67373332Y89798749D01*
X67349326Y89811580D01*
X67315188Y89830919D01*
X67291792Y89844943D01*
X67258616Y89865952D01*
X67235987Y89881071D01*
X67203894Y89903674D01*
X67181986Y89919922D01*
X67151054Y89944062D01*
X67129972Y89961363D01*
X67100254Y89986997D01*
X67080069Y90005293D01*
X67051634Y90032366D01*
X67032366Y90051634D01*
X67005293Y90080069D01*
X66986997Y90100254D01*
X66961363Y90129972D01*
X66944062Y90151054D01*
X66919922Y90181986D01*
X66903674Y90203894D01*
X66881071Y90235987D01*
X66865952Y90258616D01*
X66844943Y90291792D01*
X66830919Y90315188D01*
X66811580Y90349326D01*
X66798749Y90373332D01*
X66781075Y90408448D01*
X66769439Y90433048D01*
X66753518Y90468966D01*
X66743102Y90494113D01*
X66728974Y90530736D01*
X66719796Y90556389D01*
X66707467Y90593708D01*
X66699571Y90619734D01*
X66689094Y90657595D01*
X66682470Y90684042D01*
X66673871Y90722336D01*
X66668564Y90749014D01*
X66661846Y90787731D01*
X66657846Y90814692D01*
X66653039Y90853670D01*
X66650372Y90880747D01*
X66647484Y90919899D01*
X66646146Y90947139D01*
X66645166Y90987040D01*
X66645000Y91000572D01*
X66645000Y93999428D01*
X66645166Y94012960D01*
X66646146Y94052861D01*
X66647484Y94080101D01*
X66650372Y94119253D01*
X66653039Y94146330D01*
X66657846Y94185308D01*
X66661846Y94212269D01*
X66668564Y94250986D01*
X66673871Y94277664D01*
X66682470Y94315958D01*
X66689095Y94342408D01*
X66699569Y94380255D01*
X66707474Y94406315D01*
X66719793Y94443605D01*
X66728970Y94469253D01*
X66743102Y94505887D01*
X66753518Y94531034D01*
X66769439Y94566952D01*
X66781075Y94591552D01*
X66798749Y94626668D01*
X66811580Y94650674D01*
X66830919Y94684812D01*
X66844943Y94708208D01*
X66865952Y94741384D01*
X66881071Y94764013D01*
X66903674Y94796106D01*
X66919922Y94818014D01*
X66944062Y94848946D01*
X66961363Y94870028D01*
X66986997Y94899746D01*
X67005293Y94919931D01*
X67032366Y94948366D01*
X67051634Y94967634D01*
X67080069Y94994707D01*
X67100254Y95013003D01*
X67129972Y95038637D01*
X67151054Y95055938D01*
X67181986Y95080078D01*
X67203894Y95096326D01*
X67235987Y95118929D01*
X67258616Y95134048D01*
X67291792Y95155057D01*
X67315188Y95169081D01*
X67349326Y95188420D01*
X67373332Y95201251D01*
X67408448Y95218925D01*
X67433048Y95230561D01*
X67468966Y95246482D01*
X67494113Y95256898D01*
X67530747Y95271030D01*
X67556395Y95280207D01*
X67593685Y95292526D01*
X67619745Y95300431D01*
X67657592Y95310905D01*
X67684042Y95317530D01*
X67722336Y95326129D01*
X67749014Y95331436D01*
X67787731Y95338154D01*
X67814692Y95342154D01*
X67853670Y95346961D01*
X67880747Y95349628D01*
X67919899Y95352516D01*
X67947139Y95353854D01*
X67986382Y95354818D01*
X68013618Y95354818D01*
X68052861Y95353854D01*
X68080101Y95352516D01*
X68119253Y95349628D01*
X68146330Y95346961D01*
X68185308Y95342154D01*
X68212269Y95338154D01*
X68250986Y95331436D01*
X68277664Y95326129D01*
X68315958Y95317530D01*
X68342408Y95310905D01*
X68380255Y95300431D01*
X68406315Y95292526D01*
X68443605Y95280207D01*
X68469253Y95271030D01*
X68505887Y95256898D01*
X68531034Y95246482D01*
X68566952Y95230561D01*
X68591552Y95218925D01*
X68626668Y95201251D01*
X68650674Y95188420D01*
X68684812Y95169081D01*
X68708208Y95155057D01*
X68741384Y95134048D01*
X68764013Y95118929D01*
X68796106Y95096326D01*
X68818014Y95080078D01*
X68848946Y95055938D01*
X68870028Y95038637D01*
X68899746Y95013003D01*
X68919931Y94994707D01*
X68948366Y94967634D01*
X68967634Y94948366D01*
X68994707Y94919931D01*
X69013003Y94899746D01*
X69038637Y94870028D01*
X69055938Y94848946D01*
X69080078Y94818014D01*
X69096326Y94796106D01*
X69118929Y94764013D01*
X69134048Y94741384D01*
X69155057Y94708208D01*
X69169081Y94684812D01*
X69188420Y94650674D01*
X69201251Y94626668D01*
X69218925Y94591552D01*
X69230561Y94566952D01*
X69246482Y94531034D01*
X69256898Y94505887D01*
X69271030Y94469253D01*
X69280207Y94443605D01*
X69292526Y94406315D01*
X69300431Y94380255D01*
X69310905Y94342408D01*
X69317530Y94315958D01*
X69326129Y94277664D01*
X69331436Y94250986D01*
X69338154Y94212269D01*
X69342154Y94185308D01*
X69346961Y94146330D01*
X69349628Y94119253D01*
X69352516Y94080101D01*
X69353854Y94052861D01*
X69354834Y94012960D01*
X69355000Y93999428D01*
X69355000Y91000572D01*
X69354834Y90987040D01*
X69353854Y90947139D01*
X69352516Y90919899D01*
X69349628Y90880747D01*
X69346961Y90853670D01*
X69342154Y90814692D01*
X69338154Y90787731D01*
X69331436Y90749014D01*
X69326129Y90722336D01*
X69317530Y90684042D01*
X69310905Y90657592D01*
X69300431Y90619745D01*
X69292526Y90593685D01*
X69280203Y90556381D01*
X69271032Y90530750D01*
X69256904Y90494126D01*
X69246474Y90468948D01*
X69230559Y90433046D01*
X69218933Y90408462D01*
X69201251Y90373332D01*
X69188420Y90349326D01*
X69169081Y90315188D01*
X69155057Y90291792D01*
X69134048Y90258616D01*
X69118929Y90235987D01*
X69096326Y90203894D01*
X69080078Y90181986D01*
X69055938Y90151054D01*
X69038637Y90129972D01*
X69013003Y90100254D01*
X68994707Y90080069D01*
X68967634Y90051634D01*
X68948366Y90032366D01*
X68919934Y90005295D01*
X68899746Y89986998D01*
X68870032Y89961367D01*
X68848931Y89944049D01*
X68818002Y89919912D01*
X68796127Y89903688D01*
X68764013Y89881071D01*
X68741384Y89865952D01*
X68708208Y89844943D01*
X68684812Y89830919D01*
X68650674Y89811580D01*
X68626668Y89798749D01*
X68591552Y89781075D01*
X68566952Y89769439D01*
X68531034Y89753518D01*
X68505887Y89743102D01*
X68469253Y89728970D01*
X68443605Y89719793D01*
X68406315Y89707474D01*
X68380255Y89699569D01*
X68342408Y89689095D01*
X68315958Y89682470D01*
X68277664Y89673871D01*
X68250986Y89668564D01*
X68212269Y89661846D01*
X68185308Y89657846D01*
X68146330Y89653039D01*
X68119253Y89650372D01*
X68080101Y89647484D01*
X68052861Y89646146D01*
X68013618Y89645182D01*
D02*
G37*
%LPC*%
G36*
X75513618Y89645182D02*
X75486382Y89645182D01*
X75447139Y89646146D01*
X75419899Y89647484D01*
X75380747Y89650372D01*
X75353670Y89653039D01*
X75314692Y89657846D01*
X75287731Y89661846D01*
X75249014Y89668564D01*
X75222336Y89673871D01*
X75184042Y89682470D01*
X75157595Y89689094D01*
X75119734Y89699571D01*
X75093708Y89707467D01*
X75056389Y89719796D01*
X75030736Y89728974D01*
X74994113Y89743102D01*
X74968966Y89753518D01*
X74933048Y89769439D01*
X74908448Y89781075D01*
X74873332Y89798749D01*
X74849326Y89811580D01*
X74815188Y89830919D01*
X74791792Y89844943D01*
X74758616Y89865952D01*
X74735987Y89881071D01*
X74703894Y89903674D01*
X74681986Y89919922D01*
X74651054Y89944062D01*
X74629972Y89961363D01*
X74600254Y89986997D01*
X74580069Y90005293D01*
X74551634Y90032366D01*
X74532366Y90051634D01*
X74505293Y90080069D01*
X74486997Y90100254D01*
X74461363Y90129972D01*
X74444062Y90151054D01*
X74419922Y90181986D01*
X74403674Y90203894D01*
X74381071Y90235987D01*
X74365952Y90258616D01*
X74344943Y90291792D01*
X74330919Y90315188D01*
X74311580Y90349326D01*
X74298749Y90373332D01*
X74281075Y90408448D01*
X74269439Y90433048D01*
X74253518Y90468966D01*
X74243102Y90494113D01*
X74228974Y90530736D01*
X74219796Y90556389D01*
X74207467Y90593708D01*
X74199571Y90619734D01*
X74189094Y90657595D01*
X74182470Y90684042D01*
X74173871Y90722336D01*
X74168564Y90749014D01*
X74161846Y90787731D01*
X74157846Y90814692D01*
X74153039Y90853670D01*
X74150372Y90880747D01*
X74147484Y90919899D01*
X74146146Y90947139D01*
X74145166Y90987040D01*
X74145000Y91000572D01*
X74145000Y93999428D01*
X74145166Y94012960D01*
X74146146Y94052861D01*
X74147484Y94080101D01*
X74150372Y94119253D01*
X74153039Y94146330D01*
X74157846Y94185308D01*
X74161846Y94212269D01*
X74168564Y94250986D01*
X74173871Y94277664D01*
X74182470Y94315958D01*
X74189095Y94342408D01*
X74199569Y94380255D01*
X74207474Y94406315D01*
X74219793Y94443605D01*
X74228970Y94469253D01*
X74243102Y94505887D01*
X74253518Y94531034D01*
X74269439Y94566952D01*
X74281075Y94591552D01*
X74298749Y94626668D01*
X74311580Y94650674D01*
X74330919Y94684812D01*
X74344943Y94708208D01*
X74365952Y94741384D01*
X74381071Y94764013D01*
X74403674Y94796106D01*
X74419922Y94818014D01*
X74444062Y94848946D01*
X74461363Y94870028D01*
X74486997Y94899746D01*
X74505293Y94919931D01*
X74532366Y94948366D01*
X74551634Y94967634D01*
X74580069Y94994707D01*
X74600254Y95013003D01*
X74629972Y95038637D01*
X74651054Y95055938D01*
X74681986Y95080078D01*
X74703894Y95096326D01*
X74735987Y95118929D01*
X74758616Y95134048D01*
X74791792Y95155057D01*
X74815188Y95169081D01*
X74849326Y95188420D01*
X74873332Y95201251D01*
X74908448Y95218925D01*
X74933048Y95230561D01*
X74968966Y95246482D01*
X74994113Y95256898D01*
X75030747Y95271030D01*
X75056395Y95280207D01*
X75093685Y95292526D01*
X75119745Y95300431D01*
X75157592Y95310905D01*
X75184042Y95317530D01*
X75222336Y95326129D01*
X75249014Y95331436D01*
X75287731Y95338154D01*
X75314692Y95342154D01*
X75353670Y95346961D01*
X75380747Y95349628D01*
X75419899Y95352516D01*
X75447139Y95353854D01*
X75486382Y95354818D01*
X75513618Y95354818D01*
X75552861Y95353854D01*
X75580101Y95352516D01*
X75619253Y95349628D01*
X75646330Y95346961D01*
X75685308Y95342154D01*
X75712269Y95338154D01*
X75750986Y95331436D01*
X75777664Y95326129D01*
X75815958Y95317530D01*
X75842408Y95310905D01*
X75880255Y95300431D01*
X75906315Y95292526D01*
X75943605Y95280207D01*
X75969253Y95271030D01*
X76005887Y95256898D01*
X76031034Y95246482D01*
X76066952Y95230561D01*
X76091552Y95218925D01*
X76126668Y95201251D01*
X76150674Y95188420D01*
X76184812Y95169081D01*
X76208208Y95155057D01*
X76241384Y95134048D01*
X76264013Y95118929D01*
X76296106Y95096326D01*
X76318014Y95080078D01*
X76348946Y95055938D01*
X76370028Y95038637D01*
X76399746Y95013003D01*
X76419931Y94994707D01*
X76448366Y94967634D01*
X76467634Y94948366D01*
X76494707Y94919931D01*
X76513003Y94899746D01*
X76538637Y94870028D01*
X76555938Y94848946D01*
X76580078Y94818014D01*
X76596326Y94796106D01*
X76618929Y94764013D01*
X76634048Y94741384D01*
X76655057Y94708208D01*
X76669081Y94684812D01*
X76688420Y94650674D01*
X76701251Y94626668D01*
X76718925Y94591552D01*
X76730561Y94566952D01*
X76746482Y94531034D01*
X76756898Y94505887D01*
X76771030Y94469253D01*
X76780207Y94443605D01*
X76792526Y94406315D01*
X76800431Y94380255D01*
X76810905Y94342408D01*
X76817530Y94315958D01*
X76826129Y94277664D01*
X76831436Y94250986D01*
X76838154Y94212269D01*
X76842154Y94185308D01*
X76846961Y94146330D01*
X76849628Y94119253D01*
X76852516Y94080101D01*
X76853854Y94052861D01*
X76854834Y94012960D01*
X76855000Y93999428D01*
X76855000Y91000572D01*
X76854834Y90987040D01*
X76853854Y90947139D01*
X76852516Y90919899D01*
X76849628Y90880747D01*
X76846961Y90853670D01*
X76842154Y90814692D01*
X76838154Y90787731D01*
X76831436Y90749014D01*
X76826129Y90722336D01*
X76817530Y90684042D01*
X76810905Y90657592D01*
X76800431Y90619745D01*
X76792526Y90593685D01*
X76780203Y90556381D01*
X76771032Y90530750D01*
X76756904Y90494126D01*
X76746474Y90468948D01*
X76730559Y90433046D01*
X76718933Y90408462D01*
X76701251Y90373332D01*
X76688420Y90349326D01*
X76669081Y90315188D01*
X76655057Y90291792D01*
X76634048Y90258616D01*
X76618929Y90235987D01*
X76596326Y90203894D01*
X76580078Y90181986D01*
X76555938Y90151054D01*
X76538637Y90129972D01*
X76513003Y90100254D01*
X76494707Y90080069D01*
X76467634Y90051634D01*
X76448366Y90032366D01*
X76419934Y90005295D01*
X76399746Y89986998D01*
X76370032Y89961367D01*
X76348931Y89944049D01*
X76318002Y89919912D01*
X76296127Y89903688D01*
X76264013Y89881071D01*
X76241384Y89865952D01*
X76208208Y89844943D01*
X76184812Y89830919D01*
X76150674Y89811580D01*
X76126668Y89798749D01*
X76091552Y89781075D01*
X76066952Y89769439D01*
X76031034Y89753518D01*
X76005887Y89743102D01*
X75969253Y89728970D01*
X75943605Y89719793D01*
X75906315Y89707474D01*
X75880255Y89699569D01*
X75842408Y89689095D01*
X75815958Y89682470D01*
X75777664Y89673871D01*
X75750986Y89668564D01*
X75712269Y89661846D01*
X75685308Y89657846D01*
X75646330Y89653039D01*
X75619253Y89650372D01*
X75580101Y89647484D01*
X75552861Y89646146D01*
X75513618Y89645182D01*
D02*
G37*
%LPC*%
G36*
X90013618Y89645182D02*
X89986382Y89645182D01*
X89947139Y89646146D01*
X89919899Y89647484D01*
X89880747Y89650372D01*
X89853670Y89653039D01*
X89814692Y89657846D01*
X89787731Y89661846D01*
X89749014Y89668564D01*
X89722336Y89673871D01*
X89684042Y89682470D01*
X89657595Y89689094D01*
X89619734Y89699571D01*
X89593708Y89707467D01*
X89556389Y89719796D01*
X89530736Y89728974D01*
X89494113Y89743102D01*
X89468966Y89753518D01*
X89433048Y89769439D01*
X89408448Y89781075D01*
X89373332Y89798749D01*
X89349326Y89811580D01*
X89315188Y89830919D01*
X89291792Y89844943D01*
X89258616Y89865952D01*
X89235987Y89881071D01*
X89203894Y89903674D01*
X89181986Y89919922D01*
X89151054Y89944062D01*
X89129972Y89961363D01*
X89100254Y89986997D01*
X89080069Y90005293D01*
X89051634Y90032366D01*
X89032366Y90051634D01*
X89005293Y90080069D01*
X88986997Y90100254D01*
X88961363Y90129972D01*
X88944062Y90151054D01*
X88919922Y90181986D01*
X88903674Y90203894D01*
X88881071Y90235987D01*
X88865952Y90258616D01*
X88844943Y90291792D01*
X88830919Y90315188D01*
X88811580Y90349326D01*
X88798749Y90373332D01*
X88781075Y90408448D01*
X88769439Y90433048D01*
X88753518Y90468966D01*
X88743102Y90494113D01*
X88728974Y90530736D01*
X88719796Y90556389D01*
X88707467Y90593708D01*
X88699571Y90619734D01*
X88689094Y90657595D01*
X88682470Y90684042D01*
X88673871Y90722336D01*
X88668564Y90749014D01*
X88661846Y90787731D01*
X88657846Y90814692D01*
X88653039Y90853670D01*
X88650372Y90880747D01*
X88647484Y90919899D01*
X88646146Y90947139D01*
X88645166Y90987040D01*
X88645000Y91000572D01*
X88645000Y93999428D01*
X88645166Y94012960D01*
X88646146Y94052861D01*
X88647484Y94080101D01*
X88650372Y94119253D01*
X88653039Y94146330D01*
X88657846Y94185308D01*
X88661846Y94212269D01*
X88668564Y94250986D01*
X88673871Y94277664D01*
X88682470Y94315958D01*
X88689095Y94342408D01*
X88699569Y94380255D01*
X88707474Y94406315D01*
X88719793Y94443605D01*
X88728970Y94469253D01*
X88743102Y94505887D01*
X88753518Y94531034D01*
X88769439Y94566952D01*
X88781075Y94591552D01*
X88798749Y94626668D01*
X88811580Y94650674D01*
X88830919Y94684812D01*
X88844943Y94708208D01*
X88865952Y94741384D01*
X88881071Y94764013D01*
X88903674Y94796106D01*
X88919922Y94818014D01*
X88944062Y94848946D01*
X88961363Y94870028D01*
X88986997Y94899746D01*
X89005293Y94919931D01*
X89032366Y94948366D01*
X89051634Y94967634D01*
X89080069Y94994707D01*
X89100254Y95013003D01*
X89129972Y95038637D01*
X89151054Y95055938D01*
X89181986Y95080078D01*
X89203894Y95096326D01*
X89235987Y95118929D01*
X89258616Y95134048D01*
X89291792Y95155057D01*
X89315188Y95169081D01*
X89349326Y95188420D01*
X89373332Y95201251D01*
X89408448Y95218925D01*
X89433048Y95230561D01*
X89468966Y95246482D01*
X89494113Y95256898D01*
X89530747Y95271030D01*
X89556395Y95280207D01*
X89593685Y95292526D01*
X89619745Y95300431D01*
X89657592Y95310905D01*
X89684042Y95317530D01*
X89722336Y95326129D01*
X89749014Y95331436D01*
X89787731Y95338154D01*
X89814692Y95342154D01*
X89853670Y95346961D01*
X89880747Y95349628D01*
X89919899Y95352516D01*
X89947139Y95353854D01*
X89986382Y95354818D01*
X90013618Y95354818D01*
X90052861Y95353854D01*
X90080101Y95352516D01*
X90119253Y95349628D01*
X90146330Y95346961D01*
X90185308Y95342154D01*
X90212269Y95338154D01*
X90250986Y95331436D01*
X90277664Y95326129D01*
X90315958Y95317530D01*
X90342408Y95310905D01*
X90380255Y95300431D01*
X90406315Y95292526D01*
X90443605Y95280207D01*
X90469253Y95271030D01*
X90505887Y95256898D01*
X90531034Y95246482D01*
X90566952Y95230561D01*
X90591552Y95218925D01*
X90626668Y95201251D01*
X90650674Y95188420D01*
X90684812Y95169081D01*
X90708208Y95155057D01*
X90741384Y95134048D01*
X90764013Y95118929D01*
X90796106Y95096326D01*
X90818014Y95080078D01*
X90848946Y95055938D01*
X90870028Y95038637D01*
X90899746Y95013003D01*
X90919931Y94994707D01*
X90948366Y94967634D01*
X90967634Y94948366D01*
X90994707Y94919931D01*
X91013003Y94899746D01*
X91038637Y94870028D01*
X91055938Y94848946D01*
X91080078Y94818014D01*
X91096326Y94796106D01*
X91118929Y94764013D01*
X91134048Y94741384D01*
X91155057Y94708208D01*
X91169081Y94684812D01*
X91188420Y94650674D01*
X91201251Y94626668D01*
X91218925Y94591552D01*
X91230561Y94566952D01*
X91246482Y94531034D01*
X91256898Y94505887D01*
X91271030Y94469253D01*
X91280207Y94443605D01*
X91292526Y94406315D01*
X91300431Y94380255D01*
X91310905Y94342408D01*
X91317530Y94315958D01*
X91326129Y94277664D01*
X91331436Y94250986D01*
X91338154Y94212269D01*
X91342154Y94185308D01*
X91346961Y94146330D01*
X91349628Y94119253D01*
X91352516Y94080101D01*
X91353854Y94052861D01*
X91354834Y94012960D01*
X91355000Y93999428D01*
X91355000Y91000572D01*
X91354834Y90987040D01*
X91353854Y90947139D01*
X91352516Y90919899D01*
X91349628Y90880747D01*
X91346961Y90853670D01*
X91342154Y90814692D01*
X91338154Y90787731D01*
X91331436Y90749014D01*
X91326129Y90722336D01*
X91317530Y90684042D01*
X91310905Y90657592D01*
X91300431Y90619745D01*
X91292526Y90593685D01*
X91280203Y90556381D01*
X91271032Y90530750D01*
X91256904Y90494126D01*
X91246474Y90468948D01*
X91230559Y90433046D01*
X91218933Y90408462D01*
X91201251Y90373332D01*
X91188420Y90349326D01*
X91169081Y90315188D01*
X91155057Y90291792D01*
X91134048Y90258616D01*
X91118929Y90235987D01*
X91096326Y90203894D01*
X91080078Y90181986D01*
X91055938Y90151054D01*
X91038637Y90129972D01*
X91013003Y90100254D01*
X90994707Y90080069D01*
X90967634Y90051634D01*
X90948366Y90032366D01*
X90919934Y90005295D01*
X90899746Y89986998D01*
X90870032Y89961367D01*
X90848931Y89944049D01*
X90818002Y89919912D01*
X90796127Y89903688D01*
X90764013Y89881071D01*
X90741384Y89865952D01*
X90708208Y89844943D01*
X90684812Y89830919D01*
X90650674Y89811580D01*
X90626668Y89798749D01*
X90591552Y89781075D01*
X90566952Y89769439D01*
X90531034Y89753518D01*
X90505887Y89743102D01*
X90469253Y89728970D01*
X90443605Y89719793D01*
X90406315Y89707474D01*
X90380255Y89699569D01*
X90342408Y89689095D01*
X90315958Y89682470D01*
X90277664Y89673871D01*
X90250986Y89668564D01*
X90212269Y89661846D01*
X90185308Y89657846D01*
X90146330Y89653039D01*
X90119253Y89650372D01*
X90080101Y89647484D01*
X90052861Y89646146D01*
X90013618Y89645182D01*
D02*
G37*
%LPC*%
G36*
X28750000Y94282659D02*
X28709627Y94292772D01*
X28617207Y94325841D01*
X28528460Y94367815D01*
X28444266Y94418278D01*
X28365414Y94476759D01*
X28292680Y94542680D01*
X28226757Y94615418D01*
X28168280Y94694262D01*
X28117812Y94778464D01*
X28075843Y94867202D01*
X28042771Y94959628D01*
X28032658Y95000000D01*
X28750000Y95000000D01*
X28750000Y94282659D01*
D02*
G37*
%LPC*%
G36*
X60500000Y93250000D02*
X59602470Y93250000D01*
X59625308Y93341174D01*
X59664162Y93449765D01*
X59713477Y93554035D01*
X59772770Y93652957D01*
X59841483Y93745605D01*
X59918937Y93831063D01*
X60004397Y93908519D01*
X60097038Y93977227D01*
X60195969Y94036524D01*
X60300234Y94085838D01*
X60408826Y94124692D01*
X60500000Y94147530D01*
X60500000Y93250000D01*
D02*
G37*
%LPC*%
G36*
X61897530Y93250000D02*
X61000000Y93250000D01*
X61000000Y94147530D01*
X61091174Y94124692D01*
X61199766Y94085838D01*
X61304031Y94036524D01*
X61402962Y93977227D01*
X61495603Y93908519D01*
X61581063Y93831063D01*
X61658519Y93745603D01*
X61727227Y93652962D01*
X61786524Y93554031D01*
X61835838Y93449766D01*
X61874692Y93341174D01*
X61897530Y93250000D01*
D02*
G37*
%LPC*%
G36*
X82500000Y93250000D02*
X81602470Y93250000D01*
X81625308Y93341174D01*
X81664162Y93449765D01*
X81713477Y93554035D01*
X81772770Y93652957D01*
X81841483Y93745605D01*
X81918937Y93831063D01*
X82004397Y93908519D01*
X82097038Y93977227D01*
X82195969Y94036524D01*
X82300234Y94085838D01*
X82408826Y94124692D01*
X82500000Y94147530D01*
X82500000Y93250000D01*
D02*
G37*
%LPC*%
G36*
X83897530Y93250000D02*
X83000000Y93250000D01*
X83000000Y94147530D01*
X83091174Y94124692D01*
X83199766Y94085838D01*
X83304031Y94036524D01*
X83402962Y93977227D01*
X83495603Y93908519D01*
X83581063Y93831063D01*
X83658519Y93745603D01*
X83727227Y93652962D01*
X83786524Y93554031D01*
X83835838Y93449766D01*
X83874692Y93341174D01*
X83897530Y93250000D01*
D02*
G37*
%LPC*%
G36*
X6527223Y88645729D02*
X6472777Y88645729D01*
X6320843Y88653194D01*
X6266643Y88658532D01*
X6116168Y88680852D01*
X6062778Y88691472D01*
X5915220Y88728434D01*
X5863101Y88744244D01*
X5719895Y88795483D01*
X5669571Y88816328D01*
X5532074Y88881359D01*
X5484038Y88907035D01*
X5353573Y88985233D01*
X5308291Y89015490D01*
X5186106Y89106108D01*
X5144017Y89140650D01*
X5031317Y89242796D01*
X4992796Y89281317D01*
X4890650Y89394017D01*
X4856108Y89436106D01*
X4765490Y89558291D01*
X4735233Y89603573D01*
X4657035Y89734038D01*
X4631359Y89782074D01*
X4566328Y89919571D01*
X4545483Y89969895D01*
X4494244Y90113101D01*
X4478434Y90165220D01*
X4441472Y90312778D01*
X4430852Y90366168D01*
X4408532Y90516643D01*
X4403194Y90570843D01*
X4395729Y90722777D01*
X4395729Y90777223D01*
X4403194Y90929157D01*
X4408532Y90983357D01*
X4430852Y91133832D01*
X4441472Y91187222D01*
X4478434Y91334780D01*
X4494244Y91386899D01*
X4545483Y91530105D01*
X4566328Y91580429D01*
X4631359Y91717926D01*
X4657035Y91765962D01*
X4735233Y91896427D01*
X4765490Y91941709D01*
X4856108Y92063894D01*
X4890650Y92105983D01*
X4992796Y92218683D01*
X5031317Y92257204D01*
X5144017Y92359350D01*
X5186106Y92393892D01*
X5308291Y92484510D01*
X5353573Y92514767D01*
X5484038Y92592965D01*
X5532074Y92618641D01*
X5669571Y92683672D01*
X5719895Y92704517D01*
X5863101Y92755756D01*
X5915220Y92771566D01*
X6062778Y92808528D01*
X6116168Y92819148D01*
X6266643Y92841468D01*
X6320843Y92846806D01*
X6472777Y92854271D01*
X6527223Y92854271D01*
X6679157Y92846806D01*
X6733357Y92841468D01*
X6883832Y92819148D01*
X6937222Y92808528D01*
X7084780Y92771566D01*
X7136899Y92755756D01*
X7280105Y92704517D01*
X7330429Y92683672D01*
X7467926Y92618641D01*
X7515962Y92592965D01*
X7646427Y92514767D01*
X7691709Y92484510D01*
X7813883Y92393900D01*
X7855990Y92359343D01*
X7968681Y92257206D01*
X8007206Y92218682D01*
X8109351Y92105982D01*
X8143892Y92063894D01*
X8234510Y91941709D01*
X8264767Y91896427D01*
X8342965Y91765962D01*
X8368641Y91717926D01*
X8433672Y91580429D01*
X8454517Y91530105D01*
X8505756Y91386899D01*
X8521566Y91334780D01*
X8558528Y91187222D01*
X8569148Y91133832D01*
X8591468Y90983357D01*
X8596806Y90929157D01*
X8604271Y90777223D01*
X8604271Y90722777D01*
X8596806Y90570843D01*
X8591468Y90516643D01*
X8569148Y90366168D01*
X8558528Y90312778D01*
X8521566Y90165220D01*
X8505756Y90113101D01*
X8454517Y89969895D01*
X8433672Y89919571D01*
X8368641Y89782074D01*
X8342965Y89734038D01*
X8264767Y89603573D01*
X8234510Y89558291D01*
X8143892Y89436106D01*
X8109350Y89394017D01*
X8007204Y89281317D01*
X7968683Y89242796D01*
X7855983Y89140650D01*
X7813894Y89106108D01*
X7691709Y89015490D01*
X7646427Y88985233D01*
X7515962Y88907035D01*
X7467926Y88881359D01*
X7330429Y88816328D01*
X7280105Y88795483D01*
X7136899Y88744244D01*
X7084780Y88728434D01*
X6937222Y88691472D01*
X6883832Y88680852D01*
X6733357Y88658532D01*
X6679157Y88653194D01*
X6527223Y88645729D01*
D02*
G37*
%LPC*%
G36*
X83000000Y91852470D02*
X83000000Y92750000D01*
X83897530Y92750000D01*
X83874692Y92658826D01*
X83835838Y92550234D01*
X83786524Y92445969D01*
X83727227Y92347038D01*
X83658519Y92254397D01*
X83581063Y92168937D01*
X83495605Y92091483D01*
X83402957Y92022770D01*
X83304035Y91963477D01*
X83199765Y91914162D01*
X83091174Y91875308D01*
X83000000Y91852470D01*
D02*
G37*
%LPC*%
G36*
X82500000Y91852470D02*
X82408826Y91875308D01*
X82300234Y91914162D01*
X82195969Y91963476D01*
X82097038Y92022773D01*
X82004397Y92091481D01*
X81918937Y92168937D01*
X81841483Y92254395D01*
X81772770Y92347043D01*
X81713477Y92445965D01*
X81664162Y92550235D01*
X81625308Y92658826D01*
X81602470Y92750000D01*
X82500000Y92750000D01*
X82500000Y91852470D01*
D02*
G37*
%LPC*%
G36*
X61897530Y92750000D02*
X61874692Y92658826D01*
X61835838Y92550234D01*
X61786524Y92445969D01*
X61727227Y92347038D01*
X61658519Y92254397D01*
X61581063Y92168937D01*
X61495605Y92091483D01*
X61402957Y92022770D01*
X61304035Y91963477D01*
X61199765Y91914162D01*
X61091174Y91875308D01*
X61000000Y91852470D01*
X61000000Y92750000D01*
X61897530Y92750000D01*
D02*
G37*
%LPC*%
G36*
X60500000Y91852470D02*
X60408826Y91875308D01*
X60300234Y91914162D01*
X60195969Y91963476D01*
X60097038Y92022773D01*
X60004397Y92091481D01*
X59918937Y92168937D01*
X59841483Y92254395D01*
X59772770Y92347043D01*
X59713477Y92445965D01*
X59664162Y92550235D01*
X59625308Y92658826D01*
X59602470Y92750000D01*
X60500000Y92750000D01*
X60500000Y91852470D01*
D02*
G37*
%LPC*%
G36*
X78777247Y88320729D02*
X78722753Y88320729D01*
X78637005Y88324942D01*
X78582823Y88330279D01*
X78497880Y88342879D01*
X78444442Y88353508D01*
X78361154Y88374371D01*
X78309067Y88390171D01*
X78228189Y88419110D01*
X78177882Y88439947D01*
X78100267Y88476656D01*
X78052231Y88502332D01*
X77978583Y88546475D01*
X77933287Y88576741D01*
X77864344Y88627873D01*
X77822225Y88662440D01*
X77758616Y88720092D01*
X77720092Y88758616D01*
X77662440Y88822225D01*
X77627873Y88864344D01*
X77576741Y88933287D01*
X77546483Y88978571D01*
X77502329Y89052236D01*
X77476656Y89100268D01*
X77439946Y89177885D01*
X77419109Y89228189D01*
X77390171Y89309067D01*
X77374371Y89361154D01*
X77353508Y89444442D01*
X77342879Y89497880D01*
X77330279Y89582823D01*
X77324942Y89637005D01*
X77320729Y89722753D01*
X77320729Y89777247D01*
X77324942Y89862995D01*
X77330279Y89917177D01*
X77342879Y90002120D01*
X77353508Y90055558D01*
X77374371Y90138846D01*
X77390171Y90190933D01*
X77419109Y90271811D01*
X77439946Y90322115D01*
X77476656Y90399732D01*
X77502329Y90447764D01*
X77546483Y90521429D01*
X77576741Y90566713D01*
X77627873Y90635656D01*
X77662440Y90677775D01*
X77720092Y90741384D01*
X77758616Y90779908D01*
X77822225Y90837560D01*
X77864344Y90872127D01*
X77933287Y90923259D01*
X77978583Y90953525D01*
X78052231Y90997668D01*
X78100267Y91023344D01*
X78177882Y91060053D01*
X78228189Y91080890D01*
X78309067Y91109829D01*
X78361154Y91125629D01*
X78444442Y91146492D01*
X78497880Y91157121D01*
X78582823Y91169721D01*
X78637005Y91175058D01*
X78722753Y91179271D01*
X78777247Y91179271D01*
X78862995Y91175058D01*
X78917177Y91169721D01*
X79002120Y91157121D01*
X79055558Y91146492D01*
X79138846Y91125629D01*
X79190933Y91109829D01*
X79271811Y91080890D01*
X79322118Y91060053D01*
X79399733Y91023344D01*
X79447769Y90997668D01*
X79521417Y90953525D01*
X79566713Y90923259D01*
X79635656Y90872127D01*
X79677775Y90837560D01*
X79741384Y90779908D01*
X79779908Y90741384D01*
X79837560Y90677775D01*
X79872127Y90635656D01*
X79923259Y90566713D01*
X79953525Y90521417D01*
X79997668Y90447769D01*
X80023344Y90399733D01*
X80060053Y90322118D01*
X80080890Y90271811D01*
X80109829Y90190933D01*
X80125629Y90138846D01*
X80146492Y90055558D01*
X80157121Y90002120D01*
X80169721Y89917177D01*
X80175058Y89862995D01*
X80179271Y89777247D01*
X80179271Y89722753D01*
X80175058Y89637005D01*
X80169721Y89582823D01*
X80157121Y89497880D01*
X80146492Y89444442D01*
X80125629Y89361154D01*
X80109829Y89309067D01*
X80080890Y89228189D01*
X80060053Y89177882D01*
X80023344Y89100267D01*
X79997668Y89052231D01*
X79953525Y88978583D01*
X79923259Y88933287D01*
X79872127Y88864344D01*
X79837560Y88822225D01*
X79779908Y88758616D01*
X79741384Y88720092D01*
X79677775Y88662440D01*
X79635656Y88627873D01*
X79566713Y88576741D01*
X79521429Y88546483D01*
X79447764Y88502329D01*
X79399732Y88476656D01*
X79322115Y88439946D01*
X79271811Y88419109D01*
X79190933Y88390171D01*
X79138846Y88374371D01*
X79055558Y88353508D01*
X79002120Y88342879D01*
X78917177Y88330279D01*
X78862995Y88324942D01*
X78777247Y88320729D01*
D02*
G37*
%LPC*%
G36*
X56777247Y88320729D02*
X56722753Y88320729D01*
X56637005Y88324942D01*
X56582823Y88330279D01*
X56497880Y88342879D01*
X56444442Y88353508D01*
X56361154Y88374371D01*
X56309067Y88390171D01*
X56228189Y88419110D01*
X56177882Y88439947D01*
X56100267Y88476656D01*
X56052231Y88502332D01*
X55978583Y88546475D01*
X55933287Y88576741D01*
X55864344Y88627873D01*
X55822225Y88662440D01*
X55758616Y88720092D01*
X55720092Y88758616D01*
X55662440Y88822225D01*
X55627873Y88864344D01*
X55576741Y88933287D01*
X55546483Y88978571D01*
X55502329Y89052236D01*
X55476656Y89100268D01*
X55439946Y89177885D01*
X55419109Y89228189D01*
X55390171Y89309067D01*
X55374371Y89361154D01*
X55353508Y89444442D01*
X55342879Y89497880D01*
X55330279Y89582823D01*
X55324942Y89637005D01*
X55320729Y89722753D01*
X55320729Y89777247D01*
X55324942Y89862995D01*
X55330279Y89917177D01*
X55342879Y90002120D01*
X55353508Y90055558D01*
X55374371Y90138846D01*
X55390171Y90190933D01*
X55419109Y90271811D01*
X55439946Y90322115D01*
X55476656Y90399732D01*
X55502329Y90447764D01*
X55546483Y90521429D01*
X55576741Y90566713D01*
X55627873Y90635656D01*
X55662440Y90677775D01*
X55720092Y90741384D01*
X55758616Y90779908D01*
X55822225Y90837560D01*
X55864344Y90872127D01*
X55933287Y90923259D01*
X55978583Y90953525D01*
X56052231Y90997668D01*
X56100267Y91023344D01*
X56177882Y91060053D01*
X56228189Y91080890D01*
X56309067Y91109829D01*
X56361154Y91125629D01*
X56444442Y91146492D01*
X56497880Y91157121D01*
X56582823Y91169721D01*
X56637005Y91175058D01*
X56722753Y91179271D01*
X56777247Y91179271D01*
X56862995Y91175058D01*
X56917177Y91169721D01*
X57002120Y91157121D01*
X57055558Y91146492D01*
X57138846Y91125629D01*
X57190933Y91109829D01*
X57271811Y91080890D01*
X57322118Y91060053D01*
X57399733Y91023344D01*
X57447769Y90997668D01*
X57521417Y90953525D01*
X57566713Y90923259D01*
X57635656Y90872127D01*
X57677775Y90837560D01*
X57741384Y90779908D01*
X57779908Y90741384D01*
X57837560Y90677775D01*
X57872127Y90635656D01*
X57923259Y90566713D01*
X57953525Y90521417D01*
X57997668Y90447769D01*
X58023344Y90399733D01*
X58060053Y90322118D01*
X58080890Y90271811D01*
X58109829Y90190933D01*
X58125629Y90138846D01*
X58146492Y90055558D01*
X58157121Y90002120D01*
X58169721Y89917177D01*
X58175058Y89862995D01*
X58179271Y89777247D01*
X58179271Y89722753D01*
X58175058Y89637005D01*
X58169721Y89582823D01*
X58157121Y89497880D01*
X58146492Y89444442D01*
X58125629Y89361154D01*
X58109829Y89309067D01*
X58080890Y89228189D01*
X58060053Y89177882D01*
X58023344Y89100267D01*
X57997668Y89052231D01*
X57953525Y88978583D01*
X57923259Y88933287D01*
X57872127Y88864344D01*
X57837560Y88822225D01*
X57779908Y88758616D01*
X57741384Y88720092D01*
X57677775Y88662440D01*
X57635656Y88627873D01*
X57566713Y88576741D01*
X57521429Y88546483D01*
X57447764Y88502329D01*
X57399732Y88476656D01*
X57322115Y88439946D01*
X57271811Y88419109D01*
X57190933Y88390171D01*
X57138846Y88374371D01*
X57055558Y88353508D01*
X57002120Y88342879D01*
X56917177Y88330279D01*
X56862995Y88324942D01*
X56777247Y88320729D01*
D02*
G37*
%LPC*%
G36*
X17277225Y87548329D02*
X17222775Y87548329D01*
X17150473Y87551881D01*
X17096313Y87557216D01*
X17024720Y87567835D01*
X16971289Y87578463D01*
X16901097Y87596046D01*
X16848984Y87611854D01*
X16780862Y87636229D01*
X16730548Y87657070D01*
X16665114Y87688018D01*
X16617099Y87713682D01*
X16555043Y87750876D01*
X16509733Y87781151D01*
X16451636Y87824239D01*
X16409512Y87858810D01*
X16355911Y87907392D01*
X16317392Y87945911D01*
X16268810Y87999512D01*
X16234239Y88041636D01*
X16191151Y88099733D01*
X16160876Y88145043D01*
X16123682Y88207099D01*
X16098018Y88255114D01*
X16067070Y88320548D01*
X16046229Y88370862D01*
X16021854Y88438984D01*
X16006046Y88491097D01*
X15988463Y88561289D01*
X15977835Y88614720D01*
X15967216Y88686313D01*
X15961881Y88740473D01*
X15958329Y88812775D01*
X15958329Y88867225D01*
X15961881Y88939527D01*
X15967216Y88993687D01*
X15977835Y89065280D01*
X15988463Y89118711D01*
X16006046Y89188903D01*
X16021854Y89241016D01*
X16046229Y89309138D01*
X16067070Y89359452D01*
X16098014Y89424877D01*
X16123684Y89472903D01*
X16160890Y89534978D01*
X16191133Y89580241D01*
X16234256Y89638386D01*
X16268799Y89680476D01*
X16317392Y89734089D01*
X16355911Y89772608D01*
X16409524Y89821201D01*
X16451614Y89855744D01*
X16509759Y89898867D01*
X16555022Y89929110D01*
X16617097Y89966316D01*
X16665123Y89991986D01*
X16730548Y90022930D01*
X16780862Y90043771D01*
X16848984Y90068146D01*
X16901097Y90083954D01*
X16971289Y90101537D01*
X17024720Y90112165D01*
X17096313Y90122784D01*
X17150473Y90128119D01*
X17222775Y90131671D01*
X17277225Y90131671D01*
X17349527Y90128119D01*
X17403687Y90122784D01*
X17475280Y90112165D01*
X17528711Y90101537D01*
X17598903Y90083954D01*
X17651016Y90068146D01*
X17719138Y90043771D01*
X17769452Y90022930D01*
X17834886Y89991982D01*
X17882901Y89966318D01*
X17944957Y89929124D01*
X17990267Y89898849D01*
X18048364Y89855761D01*
X18090488Y89821190D01*
X18144089Y89772608D01*
X18182608Y89734089D01*
X18231190Y89680488D01*
X18265761Y89638364D01*
X18308849Y89580267D01*
X18339124Y89534957D01*
X18376309Y89472917D01*
X18401988Y89424873D01*
X18432925Y89359462D01*
X18453775Y89309129D01*
X18478146Y89241014D01*
X18493954Y89188903D01*
X18511537Y89118711D01*
X18522165Y89065280D01*
X18532784Y88993687D01*
X18538119Y88939527D01*
X18541671Y88867225D01*
X18541671Y88812775D01*
X18538119Y88740473D01*
X18532784Y88686313D01*
X18522165Y88614720D01*
X18511537Y88561289D01*
X18493954Y88491097D01*
X18478146Y88438986D01*
X18453775Y88370871D01*
X18432925Y88320538D01*
X18401980Y88255111D01*
X18376321Y88207105D01*
X18339110Y88145022D01*
X18308867Y88099759D01*
X18265744Y88041614D01*
X18231201Y87999524D01*
X18182608Y87945911D01*
X18144089Y87907392D01*
X18090488Y87858810D01*
X18048364Y87824239D01*
X17990267Y87781151D01*
X17944957Y87750876D01*
X17882901Y87713682D01*
X17834886Y87688018D01*
X17769452Y87657070D01*
X17719138Y87636229D01*
X17651016Y87611854D01*
X17598903Y87596046D01*
X17528711Y87578463D01*
X17475280Y87567835D01*
X17403687Y87557216D01*
X17349527Y87551881D01*
X17277225Y87548329D01*
D02*
G37*
%LPC*%
G36*
X86777247Y87070729D02*
X86722753Y87070729D01*
X86637005Y87074942D01*
X86582823Y87080279D01*
X86497880Y87092879D01*
X86444442Y87103508D01*
X86361154Y87124371D01*
X86309067Y87140171D01*
X86228189Y87169110D01*
X86177882Y87189947D01*
X86100267Y87226656D01*
X86052231Y87252332D01*
X85978583Y87296475D01*
X85933287Y87326741D01*
X85864344Y87377873D01*
X85822225Y87412440D01*
X85758616Y87470092D01*
X85720092Y87508616D01*
X85662440Y87572225D01*
X85627873Y87614344D01*
X85576741Y87683287D01*
X85546483Y87728571D01*
X85502329Y87802236D01*
X85476656Y87850268D01*
X85439946Y87927885D01*
X85419109Y87978189D01*
X85390171Y88059067D01*
X85374371Y88111154D01*
X85353508Y88194442D01*
X85342879Y88247880D01*
X85330279Y88332823D01*
X85324942Y88387005D01*
X85320729Y88472753D01*
X85320729Y88527247D01*
X85324942Y88612995D01*
X85330279Y88667177D01*
X85342879Y88752120D01*
X85353508Y88805558D01*
X85374371Y88888846D01*
X85390171Y88940933D01*
X85419109Y89021811D01*
X85439946Y89072115D01*
X85476656Y89149732D01*
X85502329Y89197764D01*
X85546483Y89271429D01*
X85576741Y89316713D01*
X85627873Y89385656D01*
X85662440Y89427775D01*
X85720092Y89491384D01*
X85758616Y89529908D01*
X85822225Y89587560D01*
X85864344Y89622127D01*
X85933287Y89673259D01*
X85978583Y89703525D01*
X86052231Y89747668D01*
X86100267Y89773344D01*
X86177882Y89810053D01*
X86228189Y89830890D01*
X86309067Y89859829D01*
X86361154Y89875629D01*
X86444442Y89896492D01*
X86497880Y89907121D01*
X86582823Y89919721D01*
X86637005Y89925058D01*
X86722753Y89929271D01*
X86777247Y89929271D01*
X86862995Y89925058D01*
X86917177Y89919721D01*
X87002120Y89907121D01*
X87055558Y89896492D01*
X87138846Y89875629D01*
X87190933Y89859829D01*
X87271811Y89830890D01*
X87322118Y89810053D01*
X87399733Y89773344D01*
X87447769Y89747668D01*
X87521417Y89703525D01*
X87566713Y89673259D01*
X87635656Y89622127D01*
X87677775Y89587560D01*
X87741384Y89529908D01*
X87779908Y89491384D01*
X87837560Y89427775D01*
X87872127Y89385656D01*
X87923259Y89316713D01*
X87953525Y89271417D01*
X87997668Y89197769D01*
X88023344Y89149733D01*
X88060053Y89072118D01*
X88080890Y89021811D01*
X88109829Y88940933D01*
X88125629Y88888846D01*
X88146492Y88805558D01*
X88157121Y88752120D01*
X88169721Y88667177D01*
X88175058Y88612995D01*
X88179271Y88527247D01*
X88179271Y88472753D01*
X88175058Y88387005D01*
X88169721Y88332823D01*
X88157121Y88247880D01*
X88146492Y88194442D01*
X88125629Y88111154D01*
X88109829Y88059067D01*
X88080890Y87978189D01*
X88060053Y87927882D01*
X88023344Y87850267D01*
X87997668Y87802231D01*
X87953525Y87728583D01*
X87923259Y87683287D01*
X87872127Y87614344D01*
X87837560Y87572225D01*
X87779908Y87508616D01*
X87741384Y87470092D01*
X87677775Y87412440D01*
X87635656Y87377873D01*
X87566713Y87326741D01*
X87521429Y87296483D01*
X87447764Y87252329D01*
X87399732Y87226656D01*
X87322115Y87189946D01*
X87271811Y87169109D01*
X87190933Y87140171D01*
X87138846Y87124371D01*
X87055558Y87103508D01*
X87002120Y87092879D01*
X86917177Y87080279D01*
X86862995Y87074942D01*
X86777247Y87070729D01*
D02*
G37*
%LPC*%
G36*
X64777247Y87070729D02*
X64722753Y87070729D01*
X64637005Y87074942D01*
X64582823Y87080279D01*
X64497880Y87092879D01*
X64444442Y87103508D01*
X64361154Y87124371D01*
X64309067Y87140171D01*
X64228189Y87169110D01*
X64177882Y87189947D01*
X64100267Y87226656D01*
X64052231Y87252332D01*
X63978583Y87296475D01*
X63933287Y87326741D01*
X63864344Y87377873D01*
X63822225Y87412440D01*
X63758616Y87470092D01*
X63720092Y87508616D01*
X63662440Y87572225D01*
X63627873Y87614344D01*
X63576741Y87683287D01*
X63546483Y87728571D01*
X63502329Y87802236D01*
X63476656Y87850268D01*
X63439946Y87927885D01*
X63419109Y87978189D01*
X63390171Y88059067D01*
X63374371Y88111154D01*
X63353508Y88194442D01*
X63342879Y88247880D01*
X63330279Y88332823D01*
X63324942Y88387005D01*
X63320729Y88472753D01*
X63320729Y88527247D01*
X63324942Y88612995D01*
X63330279Y88667177D01*
X63342879Y88752120D01*
X63353508Y88805558D01*
X63374371Y88888846D01*
X63390171Y88940933D01*
X63419109Y89021811D01*
X63439946Y89072115D01*
X63476656Y89149732D01*
X63502329Y89197764D01*
X63546483Y89271429D01*
X63576741Y89316713D01*
X63627873Y89385656D01*
X63662440Y89427775D01*
X63720092Y89491384D01*
X63758616Y89529908D01*
X63822225Y89587560D01*
X63864344Y89622127D01*
X63933287Y89673259D01*
X63978583Y89703525D01*
X64052231Y89747668D01*
X64100267Y89773344D01*
X64177882Y89810053D01*
X64228189Y89830890D01*
X64309067Y89859829D01*
X64361154Y89875629D01*
X64444442Y89896492D01*
X64497880Y89907121D01*
X64582823Y89919721D01*
X64637005Y89925058D01*
X64722753Y89929271D01*
X64777247Y89929271D01*
X64862995Y89925058D01*
X64917177Y89919721D01*
X65002120Y89907121D01*
X65055558Y89896492D01*
X65138846Y89875629D01*
X65190933Y89859829D01*
X65271811Y89830890D01*
X65322118Y89810053D01*
X65399733Y89773344D01*
X65447769Y89747668D01*
X65521417Y89703525D01*
X65566713Y89673259D01*
X65635656Y89622127D01*
X65677775Y89587560D01*
X65741384Y89529908D01*
X65779908Y89491384D01*
X65837560Y89427775D01*
X65872127Y89385656D01*
X65923259Y89316713D01*
X65953525Y89271417D01*
X65997668Y89197769D01*
X66023344Y89149733D01*
X66060053Y89072118D01*
X66080890Y89021811D01*
X66109829Y88940933D01*
X66125629Y88888846D01*
X66146492Y88805558D01*
X66157121Y88752120D01*
X66169721Y88667177D01*
X66175058Y88612995D01*
X66179271Y88527247D01*
X66179271Y88472753D01*
X66175058Y88387005D01*
X66169721Y88332823D01*
X66157121Y88247880D01*
X66146492Y88194442D01*
X66125629Y88111154D01*
X66109829Y88059067D01*
X66080890Y87978189D01*
X66060053Y87927882D01*
X66023344Y87850267D01*
X65997668Y87802231D01*
X65953525Y87728583D01*
X65923259Y87683287D01*
X65872127Y87614344D01*
X65837560Y87572225D01*
X65779908Y87508616D01*
X65741384Y87470092D01*
X65677775Y87412440D01*
X65635656Y87377873D01*
X65566713Y87326741D01*
X65521429Y87296483D01*
X65447764Y87252329D01*
X65399732Y87226656D01*
X65322115Y87189946D01*
X65271811Y87169109D01*
X65190933Y87140171D01*
X65138846Y87124371D01*
X65055558Y87103508D01*
X65002120Y87092879D01*
X64917177Y87080279D01*
X64862995Y87074942D01*
X64777247Y87070729D01*
D02*
G37*
%LPC*%
G36*
X33027249Y85945729D02*
X32972751Y85945729D01*
X32948265Y85946932D01*
X32894081Y85952270D01*
X32869795Y85955873D01*
X32816381Y85966497D01*
X32792609Y85972451D01*
X32740467Y85988268D01*
X32717366Y85996534D01*
X32667052Y86017375D01*
X32644882Y86027861D01*
X32596862Y86053529D01*
X32575814Y86066145D01*
X32530534Y86096400D01*
X32510822Y86111019D01*
X32468740Y86145554D01*
X32450565Y86162026D01*
X32412026Y86200565D01*
X32395554Y86218740D01*
X32361019Y86260822D01*
X32346396Y86280539D01*
X32316153Y86325799D01*
X32303537Y86346848D01*
X32277859Y86394887D01*
X32267369Y86417069D01*
X32246534Y86467367D01*
X32238268Y86490467D01*
X32222451Y86542609D01*
X32216497Y86566381D01*
X32205873Y86619795D01*
X32202270Y86644081D01*
X32196932Y86698265D01*
X32195729Y86722751D01*
X32195729Y86777249D01*
X32196932Y86801735D01*
X32202270Y86855919D01*
X32205873Y86880205D01*
X32216497Y86933619D01*
X32222451Y86957391D01*
X32238268Y87009533D01*
X32246534Y87032633D01*
X32267369Y87082931D01*
X32277859Y87105113D01*
X32303537Y87153152D01*
X32316151Y87174197D01*
X32328147Y87192150D01*
X32345000Y87247707D01*
X32345000Y88252293D01*
X32328147Y88307850D01*
X32316151Y88325803D01*
X32303537Y88346848D01*
X32277859Y88394887D01*
X32267369Y88417069D01*
X32246534Y88467367D01*
X32238268Y88490467D01*
X32222451Y88542609D01*
X32216497Y88566381D01*
X32205873Y88619795D01*
X32202270Y88644081D01*
X32196932Y88698265D01*
X32195729Y88722751D01*
X32195729Y88777249D01*
X32196932Y88801735D01*
X32202270Y88855919D01*
X32205872Y88880204D01*
X32216497Y88933619D01*
X32222451Y88957391D01*
X32238268Y89009533D01*
X32246534Y89032633D01*
X32267369Y89082931D01*
X32277859Y89105113D01*
X32303537Y89153152D01*
X32316153Y89174201D01*
X32346396Y89219461D01*
X32361019Y89239178D01*
X32395554Y89281260D01*
X32412036Y89299447D01*
X32450547Y89337959D01*
X32468727Y89354436D01*
X32510836Y89388993D01*
X32530545Y89403610D01*
X32575793Y89433843D01*
X32596848Y89446463D01*
X32644887Y89472141D01*
X32667069Y89482631D01*
X32717367Y89503466D01*
X32740467Y89511732D01*
X32792609Y89527549D01*
X32816381Y89533503D01*
X32869795Y89544127D01*
X32894081Y89547730D01*
X32948265Y89553068D01*
X32972751Y89554271D01*
X33027249Y89554271D01*
X33051735Y89553068D01*
X33105919Y89547730D01*
X33130205Y89544127D01*
X33183619Y89533503D01*
X33207391Y89527549D01*
X33259533Y89511732D01*
X33282633Y89503466D01*
X33332931Y89482631D01*
X33355113Y89472141D01*
X33403152Y89446463D01*
X33424207Y89433843D01*
X33469455Y89403610D01*
X33489164Y89388993D01*
X33531273Y89354436D01*
X33549453Y89337959D01*
X33587964Y89299447D01*
X33604446Y89281260D01*
X33638981Y89239178D01*
X33653600Y89219466D01*
X33683855Y89174186D01*
X33696471Y89153138D01*
X33722139Y89105118D01*
X33732625Y89082948D01*
X33753466Y89032634D01*
X33761732Y89009533D01*
X33777549Y88957391D01*
X33783503Y88933619D01*
X33794128Y88880204D01*
X33797730Y88855919D01*
X33803068Y88801735D01*
X33804271Y88777249D01*
X33804271Y88722751D01*
X33803068Y88698265D01*
X33797730Y88644081D01*
X33794127Y88619795D01*
X33783503Y88566381D01*
X33777549Y88542609D01*
X33761732Y88490467D01*
X33753466Y88467367D01*
X33732631Y88417069D01*
X33722141Y88394887D01*
X33696463Y88346848D01*
X33683849Y88325803D01*
X33671853Y88307850D01*
X33655000Y88252293D01*
X33655000Y87247706D01*
X33671853Y87192150D01*
X33683850Y87174196D01*
X33696471Y87153138D01*
X33722139Y87105118D01*
X33732625Y87082948D01*
X33753466Y87032634D01*
X33761732Y87009533D01*
X33777549Y86957391D01*
X33783503Y86933619D01*
X33794127Y86880205D01*
X33797730Y86855919D01*
X33803068Y86801735D01*
X33804271Y86777249D01*
X33804271Y86722751D01*
X33803068Y86698265D01*
X33797730Y86644081D01*
X33794127Y86619795D01*
X33783503Y86566381D01*
X33777549Y86542609D01*
X33761732Y86490467D01*
X33753466Y86467367D01*
X33732631Y86417069D01*
X33722141Y86394887D01*
X33696463Y86346848D01*
X33683847Y86325799D01*
X33653604Y86280539D01*
X33638981Y86260822D01*
X33604446Y86218740D01*
X33587974Y86200565D01*
X33549435Y86162026D01*
X33531260Y86145554D01*
X33489178Y86111019D01*
X33469461Y86096396D01*
X33424201Y86066153D01*
X33403152Y86053537D01*
X33355113Y86027859D01*
X33332931Y86017369D01*
X33282633Y85996534D01*
X33259533Y85988268D01*
X33207391Y85972451D01*
X33183619Y85966497D01*
X33130205Y85955873D01*
X33105919Y85952270D01*
X33051735Y85946932D01*
X33027249Y85945729D01*
D02*
G37*
%LPC*%
G36*
X7527223Y80395729D02*
X7472777Y80395729D01*
X7369836Y80400786D01*
X7315671Y80406121D01*
X7213723Y80421245D01*
X7160309Y80431869D01*
X7060365Y80456903D01*
X7008241Y80472715D01*
X6911243Y80507421D01*
X6860907Y80528271D01*
X6767779Y80572317D01*
X6719727Y80598001D01*
X6631352Y80650971D01*
X6586081Y80681221D01*
X6503303Y80742613D01*
X6461215Y80777154D01*
X6384872Y80846347D01*
X6346347Y80884872D01*
X6277154Y80961215D01*
X6242613Y81003303D01*
X6181221Y81086081D01*
X6150971Y81131352D01*
X6098001Y81219727D01*
X6072317Y81267779D01*
X6028271Y81360907D01*
X6007421Y81411243D01*
X5972715Y81508241D01*
X5956903Y81560365D01*
X5931869Y81660309D01*
X5921245Y81713723D01*
X5906121Y81815671D01*
X5900786Y81869836D01*
X5895729Y81972777D01*
X5895729Y82027223D01*
X5900786Y82130164D01*
X5906121Y82184329D01*
X5921245Y82286277D01*
X5931869Y82339691D01*
X5956903Y82439635D01*
X5972715Y82491759D01*
X6007421Y82588757D01*
X6028271Y82639093D01*
X6072317Y82732221D01*
X6098001Y82780273D01*
X6150971Y82868648D01*
X6181221Y82913919D01*
X6242613Y82996697D01*
X6277154Y83038785D01*
X6346347Y83115128D01*
X6384872Y83153653D01*
X6461215Y83222846D01*
X6503303Y83257387D01*
X6586081Y83318779D01*
X6631352Y83349029D01*
X6719727Y83401999D01*
X6767779Y83427683D01*
X6860907Y83471729D01*
X6911243Y83492579D01*
X7008241Y83527285D01*
X7060365Y83543097D01*
X7160309Y83568131D01*
X7213723Y83578755D01*
X7315671Y83593879D01*
X7369836Y83599214D01*
X7472777Y83604271D01*
X7527223Y83604271D01*
X7630164Y83599214D01*
X7684329Y83593879D01*
X7786277Y83578755D01*
X7839691Y83568131D01*
X7939635Y83543097D01*
X7991759Y83527285D01*
X8088757Y83492579D01*
X8139093Y83471729D01*
X8232221Y83427683D01*
X8280273Y83401999D01*
X8368648Y83349029D01*
X8413919Y83318779D01*
X8496697Y83257387D01*
X8538785Y83222846D01*
X8615128Y83153653D01*
X8653653Y83115128D01*
X8722846Y83038785D01*
X8757387Y82996697D01*
X8818779Y82913919D01*
X8849029Y82868648D01*
X8901999Y82780273D01*
X8927683Y82732221D01*
X8971729Y82639093D01*
X8992579Y82588757D01*
X9027285Y82491759D01*
X9043097Y82439635D01*
X9068131Y82339691D01*
X9078755Y82286277D01*
X9093879Y82184329D01*
X9099214Y82130164D01*
X9104271Y82027223D01*
X9104271Y81972777D01*
X9099214Y81869836D01*
X9093879Y81815671D01*
X9078755Y81713723D01*
X9068131Y81660309D01*
X9043097Y81560365D01*
X9027285Y81508241D01*
X8992579Y81411243D01*
X8971729Y81360907D01*
X8927683Y81267779D01*
X8901999Y81219727D01*
X8849029Y81131352D01*
X8818779Y81086081D01*
X8757387Y81003303D01*
X8722846Y80961215D01*
X8653653Y80884872D01*
X8615128Y80846347D01*
X8538785Y80777154D01*
X8496697Y80742613D01*
X8413919Y80681221D01*
X8368648Y80650971D01*
X8280273Y80598001D01*
X8232221Y80572317D01*
X8139093Y80528271D01*
X8088757Y80507421D01*
X7991759Y80472715D01*
X7939635Y80456903D01*
X7839691Y80431869D01*
X7786277Y80421245D01*
X7684329Y80406121D01*
X7630164Y80400786D01*
X7527223Y80395729D01*
D02*
G37*
%LPC*%
G36*
X91777223Y77895729D02*
X91722777Y77895729D01*
X91570843Y77903194D01*
X91516643Y77908532D01*
X91366168Y77930852D01*
X91312778Y77941472D01*
X91165220Y77978434D01*
X91113101Y77994244D01*
X90969895Y78045483D01*
X90919571Y78066328D01*
X90782074Y78131359D01*
X90734038Y78157035D01*
X90603573Y78235233D01*
X90558291Y78265490D01*
X90436106Y78356108D01*
X90394017Y78390650D01*
X90281317Y78492796D01*
X90242796Y78531317D01*
X90140650Y78644017D01*
X90106108Y78686106D01*
X90015490Y78808291D01*
X89985233Y78853573D01*
X89907035Y78984038D01*
X89881359Y79032074D01*
X89816328Y79169571D01*
X89795483Y79219895D01*
X89744244Y79363101D01*
X89728434Y79415220D01*
X89691472Y79562778D01*
X89680852Y79616168D01*
X89658532Y79766643D01*
X89653194Y79820843D01*
X89645729Y79972777D01*
X89645729Y80027223D01*
X89653194Y80179157D01*
X89658532Y80233357D01*
X89680852Y80383832D01*
X89691472Y80437222D01*
X89728434Y80584780D01*
X89744244Y80636899D01*
X89795483Y80780105D01*
X89816328Y80830429D01*
X89881359Y80967926D01*
X89907035Y81015962D01*
X89985233Y81146427D01*
X90015490Y81191709D01*
X90106108Y81313894D01*
X90140650Y81355983D01*
X90242796Y81468683D01*
X90281317Y81507204D01*
X90394017Y81609350D01*
X90436106Y81643892D01*
X90558291Y81734510D01*
X90603573Y81764767D01*
X90734038Y81842965D01*
X90782074Y81868641D01*
X90919571Y81933672D01*
X90969895Y81954517D01*
X91113101Y82005756D01*
X91165220Y82021566D01*
X91312778Y82058528D01*
X91366168Y82069148D01*
X91516643Y82091468D01*
X91570843Y82096806D01*
X91722777Y82104271D01*
X91777223Y82104271D01*
X91929157Y82096806D01*
X91983357Y82091468D01*
X92133832Y82069148D01*
X92187222Y82058528D01*
X92334780Y82021566D01*
X92386899Y82005756D01*
X92530105Y81954517D01*
X92580429Y81933672D01*
X92717926Y81868641D01*
X92765962Y81842965D01*
X92896427Y81764767D01*
X92941709Y81734510D01*
X93063883Y81643900D01*
X93105990Y81609343D01*
X93218681Y81507206D01*
X93257206Y81468682D01*
X93359351Y81355982D01*
X93393892Y81313894D01*
X93484510Y81191709D01*
X93514767Y81146427D01*
X93592965Y81015962D01*
X93618641Y80967926D01*
X93683672Y80830429D01*
X93704517Y80780105D01*
X93755756Y80636899D01*
X93771566Y80584780D01*
X93808528Y80437222D01*
X93819148Y80383832D01*
X93841468Y80233357D01*
X93846806Y80179157D01*
X93854271Y80027223D01*
X93854271Y79972777D01*
X93846806Y79820843D01*
X93841468Y79766643D01*
X93819148Y79616168D01*
X93808528Y79562778D01*
X93771566Y79415220D01*
X93755756Y79363101D01*
X93704517Y79219895D01*
X93683672Y79169571D01*
X93618641Y79032074D01*
X93592965Y78984038D01*
X93514767Y78853573D01*
X93484510Y78808291D01*
X93393892Y78686106D01*
X93359350Y78644017D01*
X93257204Y78531317D01*
X93218683Y78492796D01*
X93105983Y78390650D01*
X93063894Y78356108D01*
X92941709Y78265490D01*
X92896427Y78235233D01*
X92765962Y78157035D01*
X92717926Y78131359D01*
X92580429Y78066328D01*
X92530105Y78045483D01*
X92386899Y77994244D01*
X92334780Y77978434D01*
X92187222Y77941472D01*
X92133832Y77930852D01*
X91983357Y77908532D01*
X91929157Y77903194D01*
X91777223Y77895729D01*
D02*
G37*
%LPC*%
G36*
X56277249Y80195729D02*
X56222751Y80195729D01*
X56198265Y80196932D01*
X56144081Y80202270D01*
X56119795Y80205873D01*
X56066381Y80216497D01*
X56042609Y80222451D01*
X55990467Y80238268D01*
X55967366Y80246534D01*
X55917052Y80267375D01*
X55894882Y80277861D01*
X55846862Y80303529D01*
X55825814Y80316145D01*
X55780534Y80346400D01*
X55760822Y80361019D01*
X55718740Y80395554D01*
X55700565Y80412026D01*
X55662026Y80450565D01*
X55645554Y80468740D01*
X55611019Y80510822D01*
X55596396Y80530539D01*
X55566153Y80575799D01*
X55553537Y80596848D01*
X55527859Y80644887D01*
X55517369Y80667069D01*
X55496534Y80717367D01*
X55488268Y80740467D01*
X55472451Y80792609D01*
X55466497Y80816381D01*
X55455873Y80869795D01*
X55452270Y80894081D01*
X55446932Y80948265D01*
X55445729Y80972751D01*
X55445729Y81027249D01*
X55446932Y81051735D01*
X55452270Y81105919D01*
X55455873Y81130205D01*
X55466497Y81183619D01*
X55472451Y81207391D01*
X55488268Y81259533D01*
X55496534Y81282633D01*
X55517369Y81332931D01*
X55527859Y81355113D01*
X55553537Y81403152D01*
X55566153Y81424201D01*
X55596396Y81469461D01*
X55611019Y81489178D01*
X55645554Y81531260D01*
X55662036Y81549447D01*
X55700547Y81587959D01*
X55718727Y81604436D01*
X55760836Y81638993D01*
X55780545Y81653610D01*
X55825793Y81683843D01*
X55846848Y81696463D01*
X55894887Y81722141D01*
X55917069Y81732631D01*
X55967367Y81753466D01*
X55990467Y81761732D01*
X56042609Y81777549D01*
X56066381Y81783503D01*
X56119795Y81794127D01*
X56144081Y81797730D01*
X56198265Y81803068D01*
X56222751Y81804271D01*
X56277249Y81804271D01*
X56301735Y81803068D01*
X56355919Y81797730D01*
X56380205Y81794127D01*
X56433619Y81783503D01*
X56457391Y81777549D01*
X56509533Y81761732D01*
X56532633Y81753466D01*
X56582931Y81732631D01*
X56605113Y81722141D01*
X56653152Y81696463D01*
X56674202Y81683846D01*
X56692153Y81671852D01*
X56747708Y81655000D01*
X59502292Y81655000D01*
X59557847Y81671852D01*
X59575798Y81683846D01*
X59596848Y81696463D01*
X59644887Y81722141D01*
X59667069Y81732631D01*
X59717367Y81753466D01*
X59740467Y81761732D01*
X59792609Y81777549D01*
X59816381Y81783503D01*
X59869795Y81794127D01*
X59894081Y81797730D01*
X59948265Y81803068D01*
X59972751Y81804271D01*
X60027249Y81804271D01*
X60051735Y81803068D01*
X60105919Y81797730D01*
X60130205Y81794127D01*
X60183619Y81783503D01*
X60207391Y81777549D01*
X60259533Y81761732D01*
X60282633Y81753466D01*
X60332931Y81732631D01*
X60355113Y81722141D01*
X60403152Y81696463D01*
X60424207Y81683843D01*
X60469455Y81653610D01*
X60489164Y81638993D01*
X60531273Y81604436D01*
X60549453Y81587959D01*
X60587964Y81549447D01*
X60604446Y81531260D01*
X60638981Y81489178D01*
X60653600Y81469466D01*
X60683855Y81424186D01*
X60696471Y81403138D01*
X60722139Y81355118D01*
X60732625Y81332948D01*
X60753466Y81282634D01*
X60761732Y81259533D01*
X60777549Y81207391D01*
X60783503Y81183619D01*
X60794127Y81130205D01*
X60797730Y81105919D01*
X60803068Y81051735D01*
X60804271Y81027249D01*
X60804271Y80972751D01*
X60803068Y80948265D01*
X60797730Y80894081D01*
X60794127Y80869795D01*
X60783503Y80816381D01*
X60777549Y80792609D01*
X60761732Y80740467D01*
X60753466Y80717367D01*
X60732631Y80667069D01*
X60722141Y80644887D01*
X60696463Y80596848D01*
X60683847Y80575799D01*
X60653604Y80530539D01*
X60638981Y80510822D01*
X60604446Y80468740D01*
X60587974Y80450565D01*
X60549435Y80412026D01*
X60531260Y80395554D01*
X60489178Y80361019D01*
X60469461Y80346396D01*
X60424201Y80316153D01*
X60403152Y80303537D01*
X60355113Y80277859D01*
X60332931Y80267369D01*
X60282633Y80246534D01*
X60259533Y80238268D01*
X60207391Y80222451D01*
X60183619Y80216497D01*
X60130205Y80205873D01*
X60105919Y80202270D01*
X60051735Y80196932D01*
X60027249Y80195729D01*
X59972751Y80195729D01*
X59948265Y80196932D01*
X59894081Y80202270D01*
X59869795Y80205873D01*
X59816381Y80216497D01*
X59792609Y80222451D01*
X59740467Y80238268D01*
X59717366Y80246534D01*
X59667052Y80267375D01*
X59644882Y80277861D01*
X59596862Y80303529D01*
X59575804Y80316150D01*
X59557850Y80328147D01*
X59502294Y80345000D01*
X56747707Y80345000D01*
X56692150Y80328147D01*
X56674197Y80316151D01*
X56653152Y80303537D01*
X56605113Y80277859D01*
X56582931Y80267369D01*
X56532633Y80246534D01*
X56509533Y80238268D01*
X56457391Y80222451D01*
X56433619Y80216497D01*
X56380205Y80205873D01*
X56355919Y80202270D01*
X56301735Y80196932D01*
X56277249Y80195729D01*
D02*
G37*
%LPC*%
G36*
X7250000Y76500000D02*
X6173653Y76500000D01*
X6175646Y76513436D01*
X6207843Y76641974D01*
X6252483Y76766736D01*
X6309137Y76886521D01*
X6377268Y77000189D01*
X6456205Y77106623D01*
X6545193Y77204807D01*
X6643377Y77293795D01*
X6749811Y77372732D01*
X6863479Y77440863D01*
X6983264Y77497517D01*
X7108026Y77542157D01*
X7236564Y77574354D01*
X7250000Y77576347D01*
X7250000Y76500000D01*
D02*
G37*
%LPC*%
G36*
X8826347Y76500000D02*
X7750000Y76500000D01*
X7750000Y77576347D01*
X7763436Y77574354D01*
X7891974Y77542157D01*
X8016736Y77497517D01*
X8136521Y77440863D01*
X8250189Y77372732D01*
X8356623Y77293795D01*
X8454807Y77204807D01*
X8543795Y77106623D01*
X8622732Y77000189D01*
X8690863Y76886521D01*
X8747517Y76766736D01*
X8792157Y76641974D01*
X8824354Y76513436D01*
X8826347Y76500000D01*
D02*
G37*
%LPC*%
G36*
X7750000Y74923653D02*
X7750000Y76000000D01*
X8826347Y76000000D01*
X8824354Y75986564D01*
X8792157Y75858026D01*
X8747517Y75733264D01*
X8690863Y75613479D01*
X8622732Y75499811D01*
X8543795Y75393377D01*
X8454807Y75295193D01*
X8356623Y75206205D01*
X8250189Y75127268D01*
X8136521Y75059137D01*
X8016736Y75002483D01*
X7891974Y74957843D01*
X7763436Y74925646D01*
X7750000Y74923653D01*
D02*
G37*
%LPC*%
G36*
X7250000Y74923653D02*
X7236564Y74925646D01*
X7108026Y74957843D01*
X6983264Y75002483D01*
X6863479Y75059137D01*
X6749811Y75127268D01*
X6643377Y75206205D01*
X6545193Y75295193D01*
X6456205Y75393377D01*
X6377268Y75499811D01*
X6309137Y75613479D01*
X6252483Y75733264D01*
X6207843Y75858026D01*
X6175646Y75986564D01*
X6173653Y76000000D01*
X7250000Y76000000D01*
X7250000Y74923653D01*
D02*
G37*
%LPC*%
G36*
X56609883Y63750000D02*
X56614542Y63768600D01*
X56645133Y63854095D01*
X56683962Y63936192D01*
X56688397Y63943591D01*
X56701656Y63981117D01*
X56699227Y64020842D01*
X56681497Y64056474D01*
X56651273Y64082369D01*
X56602624Y64095000D01*
X55472464Y64095000D01*
X55418063Y64097673D01*
X55396131Y64099832D01*
X55289435Y64121055D01*
X55270700Y64126739D01*
X55170217Y64168360D01*
X55152946Y64177591D01*
X55062508Y64238017D01*
X55047399Y64250416D01*
X55008977Y64288894D01*
X54996552Y64297138D01*
X52727979Y66565711D01*
X52694799Y66587690D01*
X52657268Y66595000D01*
X52262617Y66595000D01*
X52223613Y66587080D01*
X52190788Y66564575D01*
X52176844Y66546410D01*
X52161161Y66520244D01*
X52130911Y66474973D01*
X52084131Y66411898D01*
X52049594Y66369815D01*
X51996874Y66311648D01*
X51958352Y66273126D01*
X51900185Y66220406D01*
X51858102Y66185869D01*
X51795027Y66139089D01*
X51749764Y66108845D01*
X51682400Y66068468D01*
X51634384Y66042803D01*
X51563422Y66009241D01*
X51513084Y65988392D01*
X51439193Y65961952D01*
X51387060Y65946138D01*
X51377610Y65943771D01*
X51341699Y65926613D01*
X51315325Y65896807D01*
X51302664Y65859075D01*
X51305724Y65819393D01*
X51324018Y65784047D01*
X51368215Y65752613D01*
X51441065Y65726547D01*
X51538673Y65680382D01*
X51631298Y65624864D01*
X51718024Y65560543D01*
X51798029Y65488031D01*
X51870542Y65408026D01*
X51934865Y65321296D01*
X51990382Y65228672D01*
X52036545Y65131067D01*
X52072923Y65029400D01*
X52090307Y64960000D01*
X50770000Y64960000D01*
X50770000Y63639693D01*
X50700600Y63657077D01*
X50598933Y63693455D01*
X50501323Y63739620D01*
X50408706Y63795133D01*
X50321976Y63859457D01*
X50241970Y63931970D01*
X50169457Y64011976D01*
X50105133Y64098706D01*
X50049620Y64191323D01*
X50003455Y64288934D01*
X49977387Y64361785D01*
X49956790Y64395840D01*
X49924541Y64419164D01*
X49885749Y64428063D01*
X49846559Y64421127D01*
X49813177Y64399455D01*
X49786229Y64352391D01*
X49783860Y64342931D01*
X49768048Y64290807D01*
X49741608Y64216916D01*
X49720759Y64166578D01*
X49687197Y64095616D01*
X49661532Y64047600D01*
X49621155Y63980236D01*
X49590911Y63934973D01*
X49544131Y63871898D01*
X49509594Y63829815D01*
X49456874Y63771648D01*
X49418352Y63733126D01*
X49360185Y63680406D01*
X49318102Y63645869D01*
X49255027Y63599089D01*
X49209764Y63568845D01*
X49142400Y63528468D01*
X49094384Y63502803D01*
X49023422Y63469241D01*
X48973084Y63448392D01*
X48899193Y63421952D01*
X48847059Y63406137D01*
X48770923Y63387066D01*
X48717500Y63376440D01*
X48639825Y63364918D01*
X48585660Y63359582D01*
X48507222Y63355729D01*
X48452778Y63355729D01*
X48374340Y63359582D01*
X48320175Y63364918D01*
X48242496Y63376441D01*
X48189082Y63387065D01*
X48112936Y63406138D01*
X48060815Y63421948D01*
X47986904Y63448395D01*
X47936582Y63469239D01*
X47865616Y63502803D01*
X47817600Y63528468D01*
X47750236Y63568845D01*
X47704973Y63599089D01*
X47641898Y63645869D01*
X47599815Y63680406D01*
X47541648Y63733126D01*
X47503126Y63771648D01*
X47450406Y63829815D01*
X47415869Y63871898D01*
X47369089Y63934973D01*
X47338845Y63980236D01*
X47298468Y64047600D01*
X47272803Y64095616D01*
X47239239Y64166582D01*
X47218395Y64216904D01*
X47191948Y64290815D01*
X47176138Y64342936D01*
X47157065Y64419082D01*
X47146441Y64472496D01*
X47134918Y64550175D01*
X47129582Y64604340D01*
X47125729Y64682778D01*
X47125729Y64737222D01*
X47129582Y64815660D01*
X47134918Y64869825D01*
X47146440Y64947500D01*
X47157065Y65000917D01*
X47164475Y65030497D01*
X47166270Y65070256D01*
X47152415Y65107566D01*
X47138183Y65125507D01*
X45298035Y66965655D01*
X45288894Y66978977D01*
X45250416Y67017399D01*
X45238017Y67032508D01*
X45177591Y67122946D01*
X45168360Y67140217D01*
X45126739Y67240700D01*
X45121055Y67259435D01*
X45099832Y67366131D01*
X45097673Y67388063D01*
X45095000Y67442464D01*
X45095000Y71997536D01*
X45097673Y72051939D01*
X45099832Y72073869D01*
X45121055Y72180564D01*
X45126739Y72199299D01*
X45168360Y72299782D01*
X45177591Y72317053D01*
X45238017Y72407491D01*
X45250554Y72422768D01*
X45289019Y72461524D01*
X45296307Y72472617D01*
X47026478Y74202788D01*
X47038475Y74210980D01*
X47077231Y74249445D01*
X47092508Y74261982D01*
X47182946Y74322408D01*
X47200217Y74331639D01*
X47300700Y74373260D01*
X47319444Y74378946D01*
X47426112Y74400166D01*
X47448050Y74402327D01*
X47502446Y74405000D01*
X55252292Y74405000D01*
X55307847Y74421852D01*
X55325798Y74433846D01*
X55346848Y74446463D01*
X55394887Y74472141D01*
X55417069Y74482631D01*
X55467367Y74503466D01*
X55490467Y74511732D01*
X55542609Y74527549D01*
X55566381Y74533503D01*
X55619795Y74544127D01*
X55644081Y74547730D01*
X55698265Y74553068D01*
X55722751Y74554271D01*
X55777249Y74554271D01*
X55801735Y74553068D01*
X55855919Y74547730D01*
X55880205Y74544127D01*
X55933619Y74533503D01*
X55957391Y74527549D01*
X56009533Y74511732D01*
X56032633Y74503466D01*
X56082931Y74482631D01*
X56105113Y74472141D01*
X56153152Y74446463D01*
X56174207Y74433843D01*
X56219455Y74403610D01*
X56239164Y74388993D01*
X56281273Y74354436D01*
X56299453Y74337959D01*
X56337964Y74299447D01*
X56354446Y74281260D01*
X56388981Y74239178D01*
X56403600Y74219466D01*
X56433855Y74174186D01*
X56446471Y74153138D01*
X56472139Y74105118D01*
X56482625Y74082948D01*
X56503466Y74032634D01*
X56511732Y74009533D01*
X56527549Y73957391D01*
X56533503Y73933619D01*
X56544127Y73880205D01*
X56547730Y73855919D01*
X56553068Y73801735D01*
X56554271Y73777249D01*
X56554271Y73722751D01*
X56553068Y73698265D01*
X56547730Y73644081D01*
X56544127Y73619795D01*
X56533503Y73566381D01*
X56527549Y73542609D01*
X56511732Y73490467D01*
X56503466Y73467367D01*
X56482631Y73417069D01*
X56472141Y73394887D01*
X56446463Y73346848D01*
X56433849Y73325803D01*
X56423662Y73310557D01*
X56408578Y73273726D01*
X56409054Y73233929D01*
X56425014Y73197470D01*
X56453931Y73170124D01*
X56506809Y73155000D01*
X66247554Y73155000D01*
X66301950Y73152327D01*
X66323888Y73150166D01*
X66430557Y73128946D01*
X66449299Y73123260D01*
X66549782Y73081639D01*
X66567053Y73072408D01*
X66657491Y73011982D01*
X66674524Y72998004D01*
X66714887Y72961423D01*
X67711423Y71964887D01*
X67748004Y71924524D01*
X67761982Y71907491D01*
X67822408Y71817053D01*
X67831639Y71799782D01*
X67873260Y71699299D01*
X67878946Y71680557D01*
X67900166Y71573888D01*
X67902327Y71551950D01*
X67905000Y71497554D01*
X67905000Y70752446D01*
X67902327Y70698050D01*
X67900166Y70676112D01*
X67878946Y70569444D01*
X67873260Y70550700D01*
X67831639Y70450217D01*
X67822408Y70432946D01*
X67761982Y70342508D01*
X67749445Y70327231D01*
X67710980Y70288475D01*
X67703692Y70277382D01*
X66193350Y68767040D01*
X66171371Y68733860D01*
X66165143Y68681657D01*
X66170923Y68642689D01*
X66176262Y68588475D01*
X66179271Y68527246D01*
X66179271Y68472754D01*
X66176262Y68411525D01*
X66170923Y68357311D01*
X66161924Y68296639D01*
X66151301Y68243234D01*
X66136395Y68183731D01*
X66120584Y68131608D01*
X66099927Y68073877D01*
X66079084Y68023558D01*
X66052852Y67968096D01*
X66027189Y67920083D01*
X65995669Y67867493D01*
X65965400Y67822191D01*
X65928859Y67772922D01*
X65894318Y67730833D01*
X65853134Y67685393D01*
X65814607Y67646866D01*
X65769167Y67605682D01*
X65727078Y67571141D01*
X65677809Y67534600D01*
X65632507Y67504331D01*
X65579917Y67472811D01*
X65531904Y67447148D01*
X65476442Y67420916D01*
X65426123Y67400073D01*
X65368392Y67379416D01*
X65316269Y67363605D01*
X65256766Y67348699D01*
X65203364Y67338077D01*
X65191359Y67336296D01*
X65153940Y67322738D01*
X65124772Y67295660D01*
X65108476Y67259350D01*
X65107632Y67219559D01*
X65122376Y67182591D01*
X65150370Y67154301D01*
X65191358Y67138460D01*
X65198502Y67137400D01*
X65251885Y67126781D01*
X65309008Y67112473D01*
X65361131Y67096662D01*
X65416550Y67076833D01*
X65466881Y67055984D01*
X65520119Y67030804D01*
X65568132Y67005141D01*
X65618622Y66974879D01*
X65663932Y66944604D01*
X65711209Y66909540D01*
X65753304Y66874994D01*
X65796928Y66835456D01*
X65835456Y66796928D01*
X65874994Y66753304D01*
X65909540Y66711209D01*
X65944604Y66663932D01*
X65974879Y66618622D01*
X66005141Y66568132D01*
X66030804Y66520119D01*
X66055989Y66466871D01*
X66076826Y66416570D01*
X66096664Y66361128D01*
X66112476Y66309002D01*
X66126777Y66251904D01*
X66137402Y66198487D01*
X66146046Y66140223D01*
X66151381Y66086052D01*
X66154271Y66027223D01*
X66154271Y65972777D01*
X66151381Y65913942D01*
X66146046Y65859777D01*
X66137402Y65801513D01*
X66126777Y65748096D01*
X66112476Y65690998D01*
X66096664Y65638872D01*
X66076826Y65583430D01*
X66055989Y65533129D01*
X66030804Y65479881D01*
X66005141Y65431868D01*
X65974879Y65381378D01*
X65944604Y65336068D01*
X65909540Y65288791D01*
X65874994Y65246696D01*
X65835456Y65203072D01*
X65796928Y65164544D01*
X65753304Y65125006D01*
X65711209Y65090460D01*
X65663932Y65055396D01*
X65618622Y65025121D01*
X65568132Y64994859D01*
X65520119Y64969196D01*
X65466871Y64944011D01*
X65416570Y64923174D01*
X65361128Y64903336D01*
X65309002Y64887524D01*
X65251904Y64873223D01*
X65198485Y64862597D01*
X65191358Y64861540D01*
X65153939Y64847983D01*
X65124771Y64820904D01*
X65108475Y64784594D01*
X65107631Y64744804D01*
X65122374Y64707836D01*
X65150368Y64679546D01*
X65191359Y64663704D01*
X65203361Y64661924D01*
X65256768Y64651300D01*
X65316271Y64636394D01*
X65368392Y64620584D01*
X65426123Y64599927D01*
X65476442Y64579084D01*
X65531904Y64552852D01*
X65579917Y64527189D01*
X65632507Y64495669D01*
X65677809Y64465400D01*
X65727078Y64428859D01*
X65769167Y64394318D01*
X65814607Y64353134D01*
X65853134Y64314607D01*
X65894318Y64269167D01*
X65928859Y64227078D01*
X65965400Y64177809D01*
X65995669Y64132507D01*
X66027189Y64079917D01*
X66052852Y64031904D01*
X66079084Y63976442D01*
X66099927Y63926123D01*
X66120584Y63868392D01*
X66136395Y63816269D01*
X66151301Y63756766D01*
X66161924Y63703361D01*
X66170923Y63642689D01*
X66176262Y63588475D01*
X66179271Y63527246D01*
X66179271Y63472754D01*
X66176262Y63411525D01*
X66170923Y63357311D01*
X66161924Y63296639D01*
X66151301Y63243234D01*
X66136395Y63183731D01*
X66120584Y63131608D01*
X66099927Y63073877D01*
X66079084Y63023558D01*
X66052852Y62968096D01*
X66027189Y62920083D01*
X65995669Y62867493D01*
X65965400Y62822191D01*
X65928859Y62772922D01*
X65894318Y62730833D01*
X65853134Y62685393D01*
X65814607Y62646866D01*
X65769167Y62605682D01*
X65727078Y62571141D01*
X65677809Y62534600D01*
X65632507Y62504331D01*
X65579917Y62472811D01*
X65531904Y62447148D01*
X65476442Y62420916D01*
X65426123Y62400073D01*
X65368392Y62379416D01*
X65316269Y62363605D01*
X65256766Y62348699D01*
X65203361Y62338076D01*
X65142689Y62329077D01*
X65088475Y62323738D01*
X65027246Y62320729D01*
X64972754Y62320729D01*
X64911525Y62323738D01*
X64857311Y62329077D01*
X64796639Y62338076D01*
X64743234Y62348699D01*
X64683731Y62363605D01*
X64631608Y62379416D01*
X64573877Y62400073D01*
X64523558Y62420916D01*
X64468096Y62447148D01*
X64420083Y62472811D01*
X64367493Y62504331D01*
X64322191Y62534600D01*
X64272922Y62571141D01*
X64230833Y62605682D01*
X64185393Y62646866D01*
X64146866Y62685393D01*
X64105682Y62730833D01*
X64071141Y62772922D01*
X64034600Y62822191D01*
X64004331Y62867493D01*
X63972811Y62920083D01*
X63947148Y62968096D01*
X63920916Y63023558D01*
X63900073Y63073877D01*
X63879416Y63131608D01*
X63863605Y63183731D01*
X63848699Y63243234D01*
X63838076Y63296639D01*
X63829077Y63357311D01*
X63823738Y63411525D01*
X63820729Y63472754D01*
X63820729Y63527246D01*
X63823738Y63588475D01*
X63829077Y63642689D01*
X63834857Y63681657D01*
X63832745Y63721400D01*
X63806650Y63767040D01*
X63507979Y64065711D01*
X63474799Y64087690D01*
X63437268Y64095000D01*
X58397376Y64095000D01*
X58358372Y64087080D01*
X58325547Y64064575D01*
X58304099Y64031048D01*
X58297427Y63991812D01*
X58311602Y63943592D01*
X58316040Y63936188D01*
X58354867Y63854095D01*
X58385458Y63768600D01*
X58390117Y63750000D01*
X56609883Y63750000D01*
D02*
G37*
%LPC*%
G36*
X22257222Y70895729D02*
X22202778Y70895729D01*
X22124340Y70899582D01*
X22070175Y70904918D01*
X21992500Y70916440D01*
X21939077Y70927066D01*
X21862941Y70946137D01*
X21810807Y70961952D01*
X21736916Y70988392D01*
X21686578Y71009241D01*
X21615616Y71042803D01*
X21567600Y71068468D01*
X21500240Y71108842D01*
X21454963Y71139096D01*
X21391925Y71185847D01*
X21349798Y71220420D01*
X21291646Y71273127D01*
X21253126Y71311648D01*
X21200406Y71369815D01*
X21165869Y71411898D01*
X21119089Y71474973D01*
X21088845Y71520236D01*
X21048472Y71587592D01*
X21022799Y71635622D01*
X20989242Y71706574D01*
X20968391Y71756916D01*
X20941951Y71830809D01*
X20926137Y71882941D01*
X20907066Y71959077D01*
X20896440Y72012500D01*
X20884918Y72090175D01*
X20879582Y72144340D01*
X20875729Y72222778D01*
X20875729Y72277222D01*
X20879582Y72355660D01*
X20884918Y72409825D01*
X20896440Y72487500D01*
X20907066Y72540923D01*
X20926137Y72617059D01*
X20941951Y72669191D01*
X20968391Y72743084D01*
X20989242Y72793426D01*
X21022799Y72864378D01*
X21048472Y72912408D01*
X21088845Y72979764D01*
X21119089Y73025027D01*
X21165869Y73088102D01*
X21200406Y73130185D01*
X21253126Y73188352D01*
X21291646Y73226873D01*
X21349798Y73279580D01*
X21391925Y73314153D01*
X21454963Y73360904D01*
X21500240Y73391158D01*
X21567600Y73431532D01*
X21615616Y73457197D01*
X21686582Y73490761D01*
X21736904Y73511605D01*
X21810815Y73538052D01*
X21862936Y73553862D01*
X21939082Y73572935D01*
X21992496Y73583559D01*
X22070175Y73595082D01*
X22124340Y73600418D01*
X22202778Y73604271D01*
X22257222Y73604271D01*
X22335660Y73600418D01*
X22389825Y73595082D01*
X22467500Y73583560D01*
X22520923Y73572934D01*
X22597059Y73553863D01*
X22649193Y73538048D01*
X22723084Y73511608D01*
X22773422Y73490759D01*
X22844384Y73457197D01*
X22892400Y73431532D01*
X22959764Y73391155D01*
X23005027Y73360911D01*
X23068102Y73314131D01*
X23110185Y73279594D01*
X23168352Y73226874D01*
X23206874Y73188352D01*
X23259594Y73130185D01*
X23294131Y73088102D01*
X23340911Y73025027D01*
X23371155Y72979764D01*
X23411523Y72912416D01*
X23411806Y72911886D01*
X23411931Y72911735D01*
X23412785Y72910310D01*
X23413002Y72910440D01*
X23437176Y72881221D01*
X23472498Y72862879D01*
X23512175Y72859767D01*
X23549924Y72872377D01*
X23586869Y72910518D01*
X23587215Y72910310D01*
X23588104Y72911793D01*
X23588194Y72911886D01*
X23588477Y72912416D01*
X23628845Y72979764D01*
X23659089Y73025027D01*
X23705869Y73088102D01*
X23740406Y73130185D01*
X23793126Y73188352D01*
X23831646Y73226873D01*
X23889798Y73279580D01*
X23931925Y73314153D01*
X23994963Y73360904D01*
X24040240Y73391158D01*
X24107600Y73431532D01*
X24155616Y73457197D01*
X24226582Y73490761D01*
X24276904Y73511605D01*
X24350815Y73538052D01*
X24402936Y73553862D01*
X24479082Y73572935D01*
X24532496Y73583559D01*
X24610175Y73595082D01*
X24664340Y73600418D01*
X24742778Y73604271D01*
X24797222Y73604271D01*
X24875660Y73600418D01*
X24929825Y73595082D01*
X25007500Y73583560D01*
X25060923Y73572934D01*
X25137059Y73553863D01*
X25189193Y73538048D01*
X25263084Y73511608D01*
X25313422Y73490759D01*
X25384384Y73457197D01*
X25432400Y73431532D01*
X25499764Y73391155D01*
X25545027Y73360911D01*
X25608102Y73314131D01*
X25650185Y73279594D01*
X25708352Y73226874D01*
X25746874Y73188352D01*
X25799594Y73130185D01*
X25834131Y73088102D01*
X25880911Y73025027D01*
X25911155Y72979764D01*
X25951532Y72912400D01*
X25977197Y72864384D01*
X26010759Y72793422D01*
X26031608Y72743084D01*
X26058048Y72669193D01*
X26073863Y72617059D01*
X26092934Y72540923D01*
X26103560Y72487500D01*
X26115082Y72409825D01*
X26120418Y72355660D01*
X26124271Y72277222D01*
X26124271Y72222778D01*
X26120418Y72144340D01*
X26115082Y72090175D01*
X26103559Y72012496D01*
X26092935Y71959082D01*
X26073862Y71882936D01*
X26058052Y71830815D01*
X26031605Y71756904D01*
X26010761Y71706582D01*
X25977197Y71635616D01*
X25951532Y71587600D01*
X25911155Y71520236D01*
X25880911Y71474973D01*
X25834131Y71411898D01*
X25799594Y71369815D01*
X25746874Y71311648D01*
X25708352Y71273126D01*
X25650185Y71220406D01*
X25608102Y71185869D01*
X25545027Y71139089D01*
X25499764Y71108845D01*
X25432400Y71068468D01*
X25384384Y71042803D01*
X25313418Y71009239D01*
X25263096Y70988395D01*
X25189185Y70961948D01*
X25137064Y70946138D01*
X25060918Y70927065D01*
X25007504Y70916441D01*
X24929825Y70904918D01*
X24875660Y70899582D01*
X24797222Y70895729D01*
X24742778Y70895729D01*
X24664340Y70899582D01*
X24610175Y70904918D01*
X24532500Y70916440D01*
X24479077Y70927066D01*
X24402941Y70946137D01*
X24350807Y70961952D01*
X24276916Y70988392D01*
X24226578Y71009241D01*
X24155616Y71042803D01*
X24107600Y71068468D01*
X24040240Y71108842D01*
X23994963Y71139096D01*
X23931925Y71185847D01*
X23889798Y71220420D01*
X23831646Y71273127D01*
X23793126Y71311648D01*
X23740406Y71369815D01*
X23705869Y71411898D01*
X23659089Y71474973D01*
X23628845Y71520236D01*
X23588477Y71587584D01*
X23588194Y71588114D01*
X23588069Y71588265D01*
X23587215Y71589690D01*
X23586998Y71589560D01*
X23562824Y71618779D01*
X23527502Y71637121D01*
X23487825Y71640233D01*
X23450076Y71627623D01*
X23413131Y71589482D01*
X23412785Y71589690D01*
X23411896Y71588207D01*
X23411806Y71588114D01*
X23411523Y71587584D01*
X23371155Y71520236D01*
X23340911Y71474973D01*
X23294131Y71411898D01*
X23259594Y71369815D01*
X23206874Y71311648D01*
X23168352Y71273126D01*
X23110185Y71220406D01*
X23068102Y71185869D01*
X23005027Y71139089D01*
X22959764Y71108845D01*
X22892400Y71068468D01*
X22844384Y71042803D01*
X22773418Y71009239D01*
X22723096Y70988395D01*
X22649185Y70961948D01*
X22597064Y70946138D01*
X22520918Y70927065D01*
X22467504Y70916441D01*
X22389825Y70904918D01*
X22335660Y70899582D01*
X22257222Y70895729D01*
D02*
G37*
%LPC*%
G36*
X20277223Y64720729D02*
X20222777Y64720729D01*
X20151691Y64724221D01*
X20097525Y64729556D01*
X20027131Y64739999D01*
X19973707Y64750625D01*
X19904711Y64767908D01*
X19852580Y64783722D01*
X19785609Y64807685D01*
X19735292Y64828527D01*
X19670967Y64858951D01*
X19622941Y64884621D01*
X19561919Y64921195D01*
X19516638Y64951452D01*
X19459483Y64993841D01*
X19417391Y65028384D01*
X19364679Y65076160D01*
X19326160Y65114679D01*
X19278384Y65167391D01*
X19243841Y65209483D01*
X19201448Y65266643D01*
X19171197Y65311916D01*
X19134621Y65372938D01*
X19108947Y65420971D01*
X19078524Y65485296D01*
X19057688Y65535601D01*
X19033721Y65602585D01*
X19017911Y65654704D01*
X19000622Y65723721D01*
X18990001Y65777116D01*
X18979558Y65847513D01*
X18974221Y65901691D01*
X18970729Y65972777D01*
X18970729Y66027223D01*
X18974221Y66098309D01*
X18979556Y66152474D01*
X18990001Y66222884D01*
X19000622Y66276279D01*
X19017911Y66345296D01*
X19033721Y66397415D01*
X19057688Y66464399D01*
X19078524Y66514704D01*
X19108947Y66579029D01*
X19134612Y66627045D01*
X19171205Y66688096D01*
X19201448Y66733357D01*
X19243842Y66790518D01*
X19278385Y66832610D01*
X19326160Y66885321D01*
X19364679Y66923840D01*
X19417391Y66971616D01*
X19459483Y67006159D01*
X19516643Y67048552D01*
X19561916Y67078803D01*
X19622938Y67115379D01*
X19670971Y67141053D01*
X19735296Y67171476D01*
X19785601Y67192312D01*
X19852580Y67216278D01*
X19904711Y67232092D01*
X19973707Y67249375D01*
X20027131Y67260001D01*
X20097525Y67270444D01*
X20151691Y67275779D01*
X20222777Y67279271D01*
X20277223Y67279271D01*
X20348309Y67275779D01*
X20402474Y67270444D01*
X20472884Y67259999D01*
X20526279Y67249378D01*
X20595296Y67232089D01*
X20647415Y67216279D01*
X20714399Y67192312D01*
X20764704Y67171476D01*
X20829027Y67141054D01*
X20877065Y67115376D01*
X20938082Y67078803D01*
X20983368Y67048544D01*
X21040492Y67006179D01*
X21082621Y66971605D01*
X21135321Y66923840D01*
X21173840Y66885321D01*
X21221605Y66832621D01*
X21256179Y66790492D01*
X21298544Y66733367D01*
X21328797Y66688092D01*
X21365382Y66627053D01*
X21391049Y66579033D01*
X21421473Y66514708D01*
X21442315Y66464391D01*
X21466279Y66397415D01*
X21482089Y66345296D01*
X21499378Y66276279D01*
X21509999Y66222884D01*
X21520444Y66152474D01*
X21525779Y66098309D01*
X21529271Y66027223D01*
X21529271Y65972777D01*
X21525779Y65901691D01*
X21520442Y65847513D01*
X21509999Y65777116D01*
X21499378Y65723721D01*
X21482089Y65654704D01*
X21466279Y65602585D01*
X21442312Y65535601D01*
X21421476Y65485296D01*
X21391053Y65420971D01*
X21365388Y65372955D01*
X21328795Y65311904D01*
X21298552Y65266643D01*
X21256158Y65209482D01*
X21221615Y65167390D01*
X21173840Y65114679D01*
X21135321Y65076160D01*
X21082610Y65028385D01*
X21040518Y64993842D01*
X20983362Y64951452D01*
X20938078Y64921194D01*
X20877057Y64884620D01*
X20829033Y64858950D01*
X20764708Y64828527D01*
X20714391Y64807685D01*
X20647420Y64783722D01*
X20595289Y64767908D01*
X20526293Y64750625D01*
X20472869Y64739999D01*
X20402475Y64729556D01*
X20348309Y64724221D01*
X20277223Y64720729D01*
D02*
G37*
%LPC*%
G36*
X12400000Y66250000D02*
X11656918Y66250000D01*
X11668850Y66297634D01*
X11702744Y66392362D01*
X11745764Y66483322D01*
X11797496Y66569631D01*
X11857428Y66650440D01*
X11925003Y66724997D01*
X11999554Y66792567D01*
X12080370Y66852504D01*
X12166678Y66904236D01*
X12257642Y66947257D01*
X12352367Y66981150D01*
X12400000Y66993082D01*
X12400000Y66250000D01*
D02*
G37*
%LPC*%
G36*
X13643082Y66250000D02*
X12900000Y66250000D01*
X12900000Y66993082D01*
X12947634Y66981150D01*
X13042362Y66947256D01*
X13133327Y66904234D01*
X13219622Y66852509D01*
X13300445Y66792567D01*
X13374997Y66724997D01*
X13442571Y66650441D01*
X13502505Y66569628D01*
X13554232Y66483327D01*
X13597257Y66392359D01*
X13631150Y66297634D01*
X13643082Y66250000D01*
D02*
G37*
%LPC*%
G36*
X12900000Y65006918D02*
X12900000Y65750000D01*
X13643082Y65750000D01*
X13631150Y65702366D01*
X13597256Y65607638D01*
X13554236Y65516678D01*
X13502504Y65430369D01*
X13442572Y65349560D01*
X13374997Y65275003D01*
X13300446Y65207434D01*
X13219623Y65147491D01*
X13133325Y65095767D01*
X13042368Y65052747D01*
X12947624Y65018847D01*
X12900000Y65006918D01*
D02*
G37*
%LPC*%
G36*
X12400000Y65006918D02*
X12352376Y65018847D01*
X12257632Y65052747D01*
X12166674Y65095767D01*
X12080371Y65147495D01*
X11999558Y65207429D01*
X11925003Y65275003D01*
X11857433Y65349554D01*
X11797496Y65430370D01*
X11745764Y65516678D01*
X11702743Y65607643D01*
X11668850Y65702366D01*
X11656918Y65750000D01*
X12400000Y65750000D01*
X12400000Y65006918D01*
D02*
G37*
%LPC*%
G36*
X51270000Y63639693D02*
X51270000Y64460000D01*
X52090307Y64460000D01*
X52072922Y64390598D01*
X52036547Y64288936D01*
X51990380Y64191323D01*
X51934867Y64098706D01*
X51870543Y64011976D01*
X51798030Y63931970D01*
X51718024Y63859457D01*
X51631294Y63795133D01*
X51538677Y63739620D01*
X51441064Y63693453D01*
X51339402Y63657078D01*
X51270000Y63639693D01*
D02*
G37*
%LPC*%
G36*
X58390117Y63250000D02*
X58385458Y63231400D01*
X58354867Y63145905D01*
X58316039Y63063810D01*
X58269366Y62985939D01*
X58215267Y62912995D01*
X58154287Y62845713D01*
X58087005Y62784733D01*
X58014061Y62730634D01*
X57936190Y62683961D01*
X57854095Y62645133D01*
X57768600Y62614542D01*
X57750000Y62609883D01*
X57750000Y63250000D01*
X58390117Y63250000D01*
D02*
G37*
%LPC*%
G36*
X57250000Y62609883D02*
X57231400Y62614542D01*
X57145905Y62645133D01*
X57063810Y62683961D01*
X56985939Y62730634D01*
X56912995Y62784733D01*
X56845713Y62845713D01*
X56784733Y62912995D01*
X56730634Y62985939D01*
X56683961Y63063810D01*
X56645133Y63145905D01*
X56614542Y63231400D01*
X56609883Y63250000D01*
X57250000Y63250000D01*
X57250000Y62609883D01*
D02*
G37*
%LPC*%
G36*
X81250000Y58660000D02*
X80429693Y58660000D01*
X80447077Y58729400D01*
X80483455Y58831067D01*
X80529620Y58928677D01*
X80585133Y59021294D01*
X80649457Y59108024D01*
X80721970Y59188030D01*
X80801976Y59260543D01*
X80888706Y59324867D01*
X80981323Y59380380D01*
X81078933Y59426545D01*
X81180600Y59462923D01*
X81250000Y59480307D01*
X81250000Y58660000D01*
D02*
G37*
%LPC*%
G36*
X82570307Y58660000D02*
X81750000Y58660000D01*
X81750000Y59480307D01*
X81819402Y59462922D01*
X81921064Y59426547D01*
X82018672Y59380382D01*
X82111296Y59324865D01*
X82198026Y59260542D01*
X82278031Y59188029D01*
X82350543Y59108024D01*
X82414864Y59021298D01*
X82470382Y58928673D01*
X82516547Y58831065D01*
X82552922Y58729402D01*
X82570307Y58660000D01*
D02*
G37*
G01*
%LPD*%
D10*
X40120000Y38000000D02*
X27850000Y38000000D01*
D11*
X33000000Y86750000D02*
X33000000Y88750000D01*
D11*
X63750000Y64750000D02*
X65000000Y63500000D01*
D11*
X66250000Y72500000D02*
X67250000Y71500000D01*
D12*
X34140000Y18400000D02*
X34140000Y17050000D01*
D10*
X81500000Y38090000D02*
X63320000Y38090000D01*
D12*
X8396556Y33746556D02*
X8396556Y16242902D01*
D10*
X82000000Y23850000D02*
X91000000Y32420000D01*
D10*
X15860000Y26010000D02*
X27850000Y38000000D01*
D11*
X55470000Y64750000D02*
X63750000Y64750000D01*
D10*
X75000000Y26988908D02*
X71038918Y30949990D01*
D11*
X47500000Y72500000D02*
X66250000Y72500000D01*
D11*
X51020000Y69790000D02*
X63790000Y69790000D01*
D10*
X15860000Y18400000D02*
X15860000Y26010000D01*
D12*
X8396556Y33746556D02*
X12650000Y38000000D01*
D11*
X49770000Y68500000D02*
X54500000Y68500000D01*
D11*
X67250000Y71500000D02*
X67250000Y70750000D01*
D11*
X54500000Y68500000D02*
X55750000Y67250000D01*
D10*
X25000000Y23000000D02*
X25000000Y18400000D01*
D10*
X62550000Y18400000D02*
X34140000Y18400000D01*
D10*
X46880000Y38000000D02*
X40120000Y38000000D01*
D12*
X15389458Y9250000D02*
X26340000Y9250000D01*
D11*
X67250000Y70750000D02*
X65000000Y68500000D01*
D10*
X63230000Y38000000D02*
X56470000Y38000000D01*
D11*
X48480000Y69790000D02*
X49770000Y68500000D01*
D10*
X68000000Y23850000D02*
X62550000Y18400000D01*
D11*
X46500000Y68000000D02*
X46500000Y71500000D01*
D11*
X45750000Y67440000D02*
X45750000Y72000000D01*
D10*
X32949990Y30949990D02*
X25000000Y23000000D01*
D11*
X47250000Y67250000D02*
X46500000Y68000000D01*
D11*
X47500000Y73750000D02*
X55750000Y73750000D01*
D10*
X86540000Y45710000D02*
X81500000Y45710000D01*
D11*
X46500000Y71500000D02*
X47500000Y72500000D01*
D10*
X91000000Y41250000D02*
X86540000Y45710000D01*
D11*
X63790000Y69790000D02*
X65000000Y71000000D01*
D10*
X71038918Y30949990D02*
X32949990Y30949990D01*
D11*
X55750000Y67250000D02*
X63750000Y67250000D01*
D11*
X63750000Y67250000D02*
X65000000Y66000000D01*
D12*
X34140000Y17050000D02*
X26340000Y9250000D01*
D11*
X51020000Y67250000D02*
X52970000Y67250000D01*
D11*
X45750000Y72000000D02*
X47500000Y73750000D01*
D11*
X56250000Y81000000D02*
X60000000Y81000000D01*
D12*
X8396556Y16242902D02*
X15389458Y9250000D01*
D10*
X63320000Y38090000D02*
X63230000Y38000000D01*
D10*
X91000000Y32420000D02*
X91000000Y41250000D01*
D10*
X75000000Y23850000D02*
X75000000Y26988908D01*
D11*
X48480000Y64710000D02*
X45750000Y67440000D01*
D11*
X48480000Y67250000D02*
X47250000Y67250000D01*
D11*
X52970000Y67250000D02*
X55470000Y64750000D01*
D13*
X64750000Y88500000D03*
D13*
X60750000Y93000000D03*
D13*
X56750000Y89750000D03*
D14*
X63230000Y38000000D03*
D14*
X56470000Y38000000D03*
D15*
X22230000Y72250000D03*
D15*
X24770000Y72250000D03*
D13*
X86750000Y88500000D03*
D13*
X82750000Y93000000D03*
D13*
X78750000Y89750000D03*
D16*
X40120000Y38000000D03*
D16*
X46880000Y38000000D03*
D17*
X7500000Y76250000D03*
D18*
X39100000Y96500000D03*
D18*
X26900000Y96500000D03*
D19*
X29000000Y97750000D03*
D19*
X33000000Y95250000D03*
D19*
X37000000Y95250000D03*
D19*
X37000000Y97750000D03*
D19*
X31000000Y97750000D03*
D19*
X31000000Y95250000D03*
D19*
X29000000Y95250000D03*
D19*
X33000000Y97750000D03*
D20*
X81500000Y38090000D03*
D20*
X81500000Y45710000D03*
D20*
X81500000Y58410000D03*
D20*
X81500000Y55870000D03*
D21*
X51020000Y67250000D03*
D21*
X48480000Y69790000D03*
D21*
X51020000Y69790000D03*
D21*
X48480000Y64710000D03*
D21*
X48480000Y67250000D03*
D21*
X51020000Y64710000D03*
D22*
X65000000Y66000000D03*
D23*
X57500000Y68500000D03*
D23*
X65000000Y63500000D03*
D23*
X65000000Y68500000D03*
D24*
X65000000Y71000000D03*
D23*
X57500000Y63500000D03*
D23*
X57500000Y71000000D03*
D23*
X57500000Y66000000D03*
D25*
X82000000Y23850000D03*
D25*
X75000000Y23850000D03*
D25*
X68000000Y23850000D03*
D26*
X12650000Y66000000D03*
D26*
X20250000Y66000000D03*
D26*
X27850000Y38000000D03*
D26*
X12650000Y38000000D03*
D17*
X7500000Y82000000D03*
D27*
X34140000Y18400000D03*
D27*
X25000000Y18400000D03*
D27*
X15860000Y18400000D03*
D28*
X33000000Y88750000D03*
D28*
X17250000Y95000000D03*
D28*
X60000000Y81000000D03*
D28*
X17250000Y81250000D03*
D28*
X17250000Y86500000D03*
D28*
X33000000Y86750000D03*
D28*
X56250000Y81000000D03*
D28*
X65250000Y80000000D03*
D28*
X14250000Y70500000D03*
D28*
X56250000Y80000000D03*
D28*
X55750000Y73750000D03*
D28*
X34500000Y91750000D03*
M02*
