%FSLAX46Y46*%
%MOMM*%
%AMPS18*
1,1,2.200000,0.000000,0.000000*
%
%ADD18PS18*%
%AMPS19*
1,1,1.700000,0.000000,0.000000*
%
%ADD19PS19*%
%AMPS23*
1,1,1.550000,0.000000,0.000000*
%
%ADD23PS23*%
%AMPS22*
1,1,1.500000,0.000000,0.000000*
%
%ADD22PS22*%
%AMPS27*
1,1,1.750000,0.000000,0.000000*
%
%ADD27PS27*%
%AMPS25*
1,1,3.200000,0.000000,0.000000*
%
%ADD25PS25*%
%AMPS16*
1,1,2.400000,0.000000,0.000000*
%
%ADD16PS16*%
%AMPS24*
1,1,1.550000,0.000000,0.000000*
%
%ADD24PS24*%
%AMPS28*
1,1,3.200000,0.000000,0.000000*
%
%ADD28PS28*%
%AMPS11*
1,1,2.050000,0.000000,0.000000*
%
%ADD11PS11*%
%AMPS21*
1,1,1.900000,0.000000,0.000000*
%
%ADD21PS21*%
%AMPS14*
1,1,1.900000,0.000000,0.000000*
%
%ADD14PS14*%
%AMPS20*
1,1,1.900000,0.000000,0.000000*
%
%ADD20PS20*%
%AMPS15*
1,1,3.100000,0.000000,0.000000*
%
%ADD15PS15*%
%AMPS13*
1,1,3.100000,0.000000,0.000000*
%
%ADD13PS13*%
%AMPS29*
1,1,0.500000,0.000000,0.000000*
%
%ADD29PS29*%
%AMPS10*
1,1,3.400000,0.000000,0.000000*
%
%ADD10PS10*%
%AMPS26*
1,1,3.600000,0.000000,0.000000*
%
%ADD26PS26*%
%AMPS17*
1,1,1.774800,0.000000,0.000000*
%
%ADD17PS17*%
%AMPS12*
21,1,3.000000,1.900000,0.000000,0.000000,90.000000*
1,1,1.900000,0.000000,1.500000*
1,1,1.900000,0.000000,-1.500000*
%
%ADD12PS12*%
G01*
G01*
%LPD*%
D10*
X91750000Y80000000D03*
D10*
X6500000Y90750000D03*
D11*
X64750000Y88500000D03*
D11*
X60750000Y93000000D03*
D11*
X56750000Y89750000D03*
D12*
X53500000Y92500000D03*
D12*
X68000000Y92500000D03*
D13*
X63230000Y38000000D03*
D13*
X56470000Y38000000D03*
D14*
X22230000Y72250000D03*
D14*
X24770000Y72250000D03*
D11*
X86750000Y88500000D03*
D11*
X82750000Y93000000D03*
D11*
X78750000Y89750000D03*
D12*
X75500000Y92500000D03*
D12*
X90000000Y92500000D03*
D15*
X40120000Y38000000D03*
D15*
X46880000Y38000000D03*
D16*
X7500000Y76250000D03*
D17*
X17250000Y88840000D03*
D17*
X17250000Y97907800D03*
D18*
X39100000Y96500000D03*
D18*
X26900000Y96500000D03*
D19*
X29000000Y97750000D03*
D19*
X33000000Y95250000D03*
D19*
X37000000Y95250000D03*
D19*
X37000000Y97750000D03*
D19*
X31000000Y97750000D03*
D19*
X31000000Y95250000D03*
D19*
X29000000Y95250000D03*
D19*
X33000000Y97750000D03*
D20*
X81500000Y38090000D03*
D20*
X81500000Y45710000D03*
D20*
X81500000Y58410000D03*
D20*
X81500000Y55870000D03*
D21*
X51020000Y67250000D03*
D21*
X48480000Y69790000D03*
D21*
X51020000Y69790000D03*
D21*
X48480000Y64710000D03*
D21*
X48480000Y67250000D03*
D21*
X51020000Y64710000D03*
D22*
X65000000Y66000000D03*
D23*
X57500000Y68500000D03*
D23*
X65000000Y63500000D03*
D23*
X65000000Y68500000D03*
D24*
X65000000Y71000000D03*
D23*
X57500000Y63500000D03*
D23*
X57500000Y71000000D03*
D23*
X57500000Y66000000D03*
D25*
X82000000Y23850000D03*
D26*
X55000000Y8750000D03*
D25*
X75000000Y23850000D03*
D25*
X68000000Y23850000D03*
D26*
X95000000Y8750000D03*
D27*
X12650000Y66000000D03*
D27*
X20250000Y66000000D03*
D27*
X27850000Y38000000D03*
D27*
X12650000Y38000000D03*
D16*
X7500000Y82000000D03*
D26*
X5000000Y8750000D03*
D28*
X34140000Y18400000D03*
D28*
X25000000Y18400000D03*
D28*
X15860000Y18400000D03*
D26*
X45000000Y8750000D03*
D29*
X33000000Y88750000D03*
D29*
X17250000Y95000000D03*
D29*
X60000000Y81000000D03*
D29*
X17250000Y81250000D03*
D29*
X17250000Y86500000D03*
D29*
X33000000Y86750000D03*
D29*
X56250000Y81000000D03*
D29*
X65250000Y80000000D03*
D29*
X14250000Y70500000D03*
D29*
X56250000Y80000000D03*
D29*
X55750000Y73750000D03*
D29*
X34500000Y91750000D03*
M02*
