M48
FMAT,2
METRIC,TZ
T13C0.300
T8C0.700
T9C0.750
T7C0.800
T10C0.850
T4C1.000
T5C1.020
T2C1.200
T6C1.575
T12C1.600
T3C1.700
T1C3.200
T11C3.400
%
G90
G05
M71
T13
X33.000Y88.750
X17.250Y95.000
X60.000Y81.000
X17.250Y81.250
X17.250Y86.500
X33.000Y86.750
X56.250Y81.000
X65.250Y80.000
X14.250Y70.500
X56.250Y80.000
X55.750Y73.750
X34.500Y91.750
T8
X65.000Y66.000
T9
X57.500Y68.500
X65.000Y63.500
X65.000Y68.500
X57.500Y63.500
X57.500Y71.000
X57.500Y66.000
T7
X29.000Y97.750
X33.000Y95.250
X37.000Y95.250
X37.000Y97.750
X31.000Y97.750
X31.000Y95.250
X29.000Y95.250
X33.000Y97.750
T10
X65.000Y71.000
X12.650Y66.000
X20.250Y66.000
X27.850Y38.000
X12.650Y38.000
T4
X22.230Y72.250
X24.770Y72.250
X81.500Y38.090
X81.500Y45.710
X81.500Y58.410
X81.500Y55.870
X51.020Y67.250
X48.480Y69.790
X51.020Y69.790
X48.480Y64.710
X48.480Y67.250
X51.020Y64.710
T5
X7.500Y76.250
X7.500Y82.000
T2
X64.750Y88.500
X60.750Y93.000
X56.750Y89.750
X86.750Y88.500
X82.750Y93.000
X78.750Y89.750
X39.100Y96.500
X26.900Y96.500
T6
X17.250Y88.840
X17.250Y97.908
T12
X34.140Y18.400
X25.000Y18.400
X15.860Y18.400
T3
X63.230Y38.000
X56.470Y38.000
X40.120Y38.000
X46.880Y38.000
X82.000Y23.850
X75.000Y23.850
X68.000Y23.850
X53.500Y94.000G85X53.500Y91.000
X68.000Y94.000G85X68.000Y91.000
X75.500Y94.000G85X75.500Y91.000
X90.000Y94.000G85X90.000Y91.000
T1
X91.750Y80.000
X6.500Y90.750
T11
X55.000Y8.750
X95.000Y8.750
X5.000Y8.750
X45.000Y8.750
M30
