%FSLAX46Y46*%
%MOMM*%
%AMPS27*
1,1,2.200000,0.000000,0.000000*
%
%ADD27PS27*%
%AMPS28*
1,1,1.700000,0.000000,0.000000*
%
%ADD28PS28*%
%AMPS32*
1,1,1.550000,0.000000,0.000000*
%
%ADD32PS32*%
%AMPS31*
1,1,1.500000,0.000000,0.000000*
%
%ADD31PS31*%
%AMPS37*
1,1,1.750000,0.000000,0.000000*
%
%ADD37PS37*%
%AMPS35*
1,1,3.200000,0.000000,0.000000*
%
%ADD35PS35*%
%AMPS22*
1,1,2.400000,0.000000,0.000000*
%
%ADD22PS22*%
%AMPS33*
1,1,1.550000,0.000000,0.000000*
%
%ADD33PS33*%
%AMPS39*
1,1,3.200000,0.000000,0.000000*
%
%ADD39PS39*%
%AMPS12*
1,1,2.050000,0.000000,0.000000*
%
%ADD12PS12*%
%AMPS30*
1,1,1.900000,0.000000,0.000000*
%
%ADD30PS30*%
%AMPS18*
1,1,1.900000,0.000000,0.000000*
%
%ADD18PS18*%
%AMPS29*
1,1,1.900000,0.000000,0.000000*
%
%ADD29PS29*%
%AMPS20*
1,1,3.100000,0.000000,0.000000*
%
%ADD20PS20*%
%AMPS16*
1,1,3.100000,0.000000,0.000000*
%
%ADD16PS16*%
%AMPS21*
21,1,1.000000,1.000000,0.000000,0.000000,270.000000*
%
%ADD21PS21*%
%AMPS15*
21,1,0.800000,1.700000,0.000000,0.000000,90.000000*
%
%ADD15PS15*%
%AMPS14*
21,1,0.800000,1.700000,0.000000,0.000000,270.000000*
%
%ADD14PS14*%
%AMPS38*
21,1,1.200000,1.450000,0.000000,0.000000,180.000000*
%
%ADD38PS38*%
%AMPS17*
21,1,1.000000,0.950000,0.000000,0.000000,0.000000*
%
%ADD17PS17*%
%AMPS19*
21,1,1.000000,0.950000,0.000000,0.000000,90.000000*
%
%ADD19PS19*%
%AMPS23*
21,1,1.000000,0.950000,0.000000,0.000000,180.000000*
%
%ADD23PS23*%
%AMPS25*
21,1,0.700000,1.100000,0.000000,0.000000,0.000000*
%
%ADD25PS25*%
%AMPS34*
21,1,0.700000,1.100000,0.000000,0.000000,90.000000*
%
%ADD34PS34*%
%AMPS11*
21,1,0.700000,1.100000,0.000000,0.000000,180.000000*
%
%ADD11PS11*%
%AMPS24*
21,1,0.700000,1.100000,0.000000,0.000000,270.000000*
%
%ADD24PS24*%
%AMPS40*
1,1,0.500000,0.000000,0.000000*
%
%ADD40PS40*%
%AMPS10*
1,1,3.400000,0.000000,0.000000*
%
%ADD10PS10*%
%AMPS36*
1,1,3.600000,0.000000,0.000000*
%
%ADD36PS36*%
%AMPS26*
1,1,1.774800,0.000000,0.000000*
%
%ADD26PS26*%
%AMPS13*
21,1,3.000000,1.900000,0.000000,0.000000,90.000000*
1,1,1.900000,0.000000,1.500000*
1,1,1.900000,0.000000,-1.500000*
%
%ADD13PS13*%
G01*
G01*
%LPD*%
D10*
X91750000Y80000000D03*
D10*
X6500000Y90750000D03*
D11*
X60250000Y79000000D03*
D11*
X58750000Y79000000D03*
D12*
X64750000Y88500000D03*
D12*
X60750000Y93000000D03*
D12*
X56750000Y89750000D03*
D13*
X53500000Y92500000D03*
D13*
X68000000Y92500000D03*
D14*
X62300000Y67885000D03*
D14*
X62300000Y65345000D03*
D15*
X67700000Y67885000D03*
D14*
X62300000Y69155000D03*
D14*
X62300000Y66615000D03*
D15*
X67700000Y65345000D03*
D15*
X67700000Y66615000D03*
D15*
X67700000Y69155000D03*
D16*
X63230000Y38000000D03*
D16*
X56470000Y38000000D03*
D11*
X14250000Y92382600D03*
D11*
X12750000Y92382600D03*
D17*
X62000000Y61000000D03*
D17*
X60500000Y61000000D03*
D18*
X22230000Y72250000D03*
D18*
X24770000Y72250000D03*
D19*
X63250000Y84500000D03*
D19*
X63250000Y83000000D03*
D12*
X86750000Y88500000D03*
D12*
X82750000Y93000000D03*
D12*
X78750000Y89750000D03*
D13*
X75500000Y92500000D03*
D13*
X90000000Y92500000D03*
D19*
X58250000Y84500000D03*
D19*
X58250000Y83000000D03*
D20*
X40120000Y38000000D03*
D20*
X46880000Y38000000D03*
D21*
X17250000Y85423600D03*
D21*
X17250000Y83823600D03*
D11*
X37000000Y87750000D03*
D11*
X35500000Y87750000D03*
D22*
X7500000Y76250000D03*
D11*
X14250000Y83823600D03*
D11*
X12750000Y83823600D03*
D23*
X63750000Y77500000D03*
D23*
X65250000Y77500000D03*
D24*
X37000000Y90750000D03*
D24*
X37000000Y89250000D03*
D25*
X61250000Y79000000D03*
D25*
X62750000Y79000000D03*
D26*
X17250000Y88840000D03*
D26*
X17250000Y97907800D03*
D25*
X21000000Y78793600D03*
D25*
X22500000Y78793600D03*
D27*
X39100000Y96500000D03*
D27*
X26900000Y96500000D03*
D28*
X29000000Y97750000D03*
D28*
X33000000Y95250000D03*
D28*
X37000000Y95250000D03*
D28*
X37000000Y97750000D03*
D28*
X31000000Y97750000D03*
D28*
X31000000Y95250000D03*
D28*
X29000000Y95250000D03*
D28*
X33000000Y97750000D03*
D11*
X30750000Y90750000D03*
D11*
X29250000Y90750000D03*
D29*
X81500000Y38090000D03*
D29*
X81500000Y45710000D03*
D29*
X81500000Y58410000D03*
D29*
X81500000Y55870000D03*
D23*
X33000000Y90750000D03*
D23*
X34500000Y90750000D03*
D30*
X51020000Y67250000D03*
D30*
X48480000Y69790000D03*
D30*
X51020000Y69790000D03*
D30*
X48480000Y64710000D03*
D30*
X48480000Y67250000D03*
D30*
X51020000Y64710000D03*
D31*
X65000000Y66000000D03*
D32*
X57500000Y68500000D03*
D32*
X65000000Y63500000D03*
D32*
X65000000Y68500000D03*
D33*
X65000000Y71000000D03*
D32*
X57500000Y63500000D03*
D32*
X57500000Y71000000D03*
D32*
X57500000Y66000000D03*
D34*
X63250000Y80250000D03*
D34*
X63250000Y81750000D03*
D35*
X82000000Y23850000D03*
D36*
X55000000Y8750000D03*
D35*
X75000000Y23850000D03*
D35*
X68000000Y23850000D03*
D36*
X95000000Y8750000D03*
D37*
X12650000Y66000000D03*
D37*
X20250000Y66000000D03*
D37*
X27850000Y38000000D03*
D37*
X12650000Y38000000D03*
D11*
X57750000Y79000000D03*
D11*
X56250000Y79000000D03*
D21*
X17250000Y93932600D03*
D21*
X17250000Y92332600D03*
D11*
X62000000Y73500000D03*
D11*
X60500000Y73500000D03*
D25*
X63750000Y79000000D03*
D25*
X65250000Y79000000D03*
D17*
X57750000Y77500000D03*
D17*
X56250000Y77500000D03*
D38*
X17499944Y70500008D03*
D38*
X15499944Y70500008D03*
D34*
X58250000Y80250000D03*
D34*
X58250000Y81750000D03*
D22*
X7500000Y82000000D03*
D36*
X5000000Y8750000D03*
D39*
X34140000Y18400000D03*
D39*
X25000000Y18400000D03*
D39*
X15860000Y18400000D03*
D36*
X45000000Y8750000D03*
D21*
X17250000Y80343600D03*
D21*
X17250000Y78743600D03*
D40*
X33000000Y88750000D03*
D40*
X17250000Y95000000D03*
D40*
X60000000Y81000000D03*
D40*
X17250000Y81250000D03*
D40*
X17250000Y86500000D03*
D40*
X33000000Y86750000D03*
D40*
X56250000Y81000000D03*
D40*
X65250000Y80000000D03*
D40*
X14250000Y70500000D03*
D40*
X56250000Y80000000D03*
D40*
X55750000Y73750000D03*
D40*
X34500000Y91750000D03*
M02*
